<svg xmlns="http://www.w3.org/2000/svg" xmlns:xlink="http://www.w3.org/1999/xlink" width="60" zoomAndPan="magnify" viewBox="0 0 45 52.499999" height="70" preserveAspectRatio="xMidYMid meet" version="1.0"><defs><g/><clipPath id="d6d693f5e7"><path d="M 7.691406 10.40625 L 37.40625 10.40625 L 37.40625 40.863281 L 7.691406 40.863281 Z M 7.691406 10.40625 " clip-rule="nonzero"/></clipPath><clipPath id="984a792724"><path d="M 8.273438 26.609375 L 8.335938 26.628906 C 8.390625 26.640625 8.445312 26.648438 8.5 26.648438 C 8.550781 26.648438 8.601562 26.640625 8.652344 26.628906 C 8.660156 26.734375 8.664062 26.84375 8.675781 26.949219 C 8.464844 27.148438 8.015625 27.65625 8.238281 28.25 C 8.324219 28.472656 8.457031 28.609375 8.601562 28.691406 C 8.421875 28.910156 8.300781 29.203125 8.421875 29.542969 C 8.519531 29.824219 8.6875 30.015625 8.910156 30.105469 C 8.921875 30.109375 8.929688 30.109375 8.9375 30.113281 C 8.800781 30.339844 8.742188 30.621094 8.902344 30.910156 C 9.058594 31.195312 9.265625 31.296875 9.410156 31.332031 C 9.472656 31.347656 9.53125 31.351562 9.585938 31.351562 C 9.671875 31.351562 9.75 31.335938 9.820312 31.316406 C 10.453125 32.738281 11.316406 34.03125 12.386719 35.164062 C 12.242188 35.480469 12.171875 35.972656 12.613281 36.316406 C 12.785156 36.449219 12.964844 36.5 13.128906 36.5 C 13.328125 36.5 13.507812 36.425781 13.644531 36.335938 C 14.265625 36.851562 14.9375 37.3125 15.640625 37.707031 C 15.789062 37.984375 16.375 38.984375 17.058594 39.148438 C 17.132812 39.167969 17.203125 39.175781 17.273438 39.175781 C 17.511719 39.175781 17.71875 39.074219 17.871094 38.882812 C 17.910156 38.832031 17.941406 38.785156 17.964844 38.738281 C 18.359375 38.871094 18.761719 38.992188 19.171875 39.089844 C 20.132812 39.324219 21.117188 39.445312 22.097656 39.46875 C 22.125 39.652344 22.210938 39.816406 22.351562 39.929688 C 22.4375 40 22.53125 40.050781 22.640625 40.074219 C 22.695312 40.089844 22.75 40.09375 22.804688 40.09375 C 23.019531 40.09375 23.234375 39.992188 23.375 39.816406 C 23.476562 39.683594 23.574219 39.546875 23.675781 39.414062 C 26.480469 39.152344 29.191406 38.003906 31.34375 36.164062 L 35.261719 40.324219 C 35.492188 40.570312 35.804688 40.695312 36.117188 40.695312 C 36.40625 40.695312 36.695312 40.589844 36.921875 40.375 C 37.152344 40.160156 37.285156 39.871094 37.292969 39.554688 C 37.300781 39.242188 37.1875 38.941406 36.972656 38.714844 L 34.945312 36.558594 L 33.664062 35.199219 L 32.996094 34.488281 C 34.34375 32.863281 35.285156 30.992188 35.785156 28.921875 C 35.929688 28.324219 36.027344 27.722656 36.089844 27.125 C 36.089844 27.121094 36.09375 27.121094 36.09375 27.117188 C 36.09375 27.109375 36.09375 27.101562 36.09375 27.097656 C 36.25 25.609375 36.164062 24.121094 35.828125 22.644531 C 35.847656 22.195312 35.984375 17.105469 31.835938 13.828125 C 27.550781 10.4375 22.855469 10.894531 22.628906 10.917969 C 21.9375 10.824219 21.289062 10.785156 20.699219 10.804688 C 17.421875 10.925781 15.003906 12.28125 14.136719 14.457031 L 13.375 13.648438 C 13.300781 13.566406 11.453125 11.625 10.003906 12.671875 C 8.972656 13.417969 8.816406 14.703125 9.578125 16.199219 C 9.675781 16.398438 9.859375 16.535156 10.078125 16.578125 C 10.296875 16.621094 10.523438 16.558594 10.691406 16.410156 C 10.917969 16.207031 10.996094 15.886719 10.882812 15.605469 C 10.832031 15.480469 10.683594 15.058594 10.855469 14.917969 C 11.070312 14.742188 11.515625 15.109375 11.617188 15.210938 L 12.484375 16.132812 C 11.957031 16.671875 11.480469 17.257812 11.054688 17.875 C 11.050781 17.878906 11.046875 17.886719 11.042969 17.890625 C 10.09375 19.273438 9.398438 20.824219 9 22.476562 C 8.929688 22.777344 8.867188 23.082031 8.8125 23.382812 C 8.433594 24.144531 8.101562 24.910156 7.828125 25.664062 C 7.691406 26.042969 7.886719 26.464844 8.273438 26.609375 Z M 15.0625 18.867188 C 14.183594 19.222656 13.335938 19.660156 12.527344 20.175781 C 13.078125 19.449219 13.671875 18.742188 14.304688 18.066406 Z M 16.859375 13.851562 C 16.230469 14.3125 15.605469 14.820312 14.996094 15.371094 L 14.582031 14.929688 C 14.921875 14.695312 15.691406 14.222656 16.859375 13.851562 Z M 18.148438 13.523438 C 18.539062 13.453125 18.953125 13.394531 19.402344 13.359375 C 18.734375 13.738281 18.0625 14.171875 17.398438 14.664062 C 17.390625 14.667969 17.382812 14.675781 17.375 14.679688 C 16.8125 15.09375 16.257812 15.546875 15.714844 16.027344 C 15.707031 16.035156 15.703125 16.042969 15.695312 16.046875 C 15.683594 16.058594 15.671875 16.066406 15.664062 16.078125 L 15.320312 15.714844 C 16.246094 14.886719 17.195312 14.148438 18.148438 13.523438 Z M 17.855469 15.574219 C 17.492188 15.625 17.125 15.691406 16.753906 15.765625 C 17.039062 15.53125 17.328125 15.304688 17.617188 15.089844 C 17.925781 15.035156 18.246094 14.984375 18.570312 14.941406 C 18.328125 15.140625 18.089844 15.351562 17.855469 15.574219 Z M 19.328125 14.359375 C 19.050781 14.394531 18.773438 14.429688 18.503906 14.46875 C 19.164062 14.027344 19.828125 13.640625 20.480469 13.324219 C 20.683594 13.324219 20.894531 13.332031 21.109375 13.34375 C 20.5 13.617188 19.902344 13.957031 19.328125 14.359375 Z M 17.289062 16.148438 C 17.035156 16.421875 16.785156 16.710938 16.542969 17.011719 L 15.996094 16.429688 C 16.429688 16.316406 16.863281 16.222656 17.289062 16.148438 Z M 22.171875 13.441406 C 22.570312 13.492188 22.980469 13.566406 23.410156 13.65625 C 22.121094 14.136719 19.589844 15.359375 17.53125 18.0625 L 16.871094 17.363281 C 18.410156 15.425781 20.238281 14.070312 22.171875 13.441406 Z M 24.289062 13.867188 C 24.574219 13.945312 24.863281 14.03125 25.15625 14.125 C 23.796875 14.527344 21.015625 15.730469 18.59375 19.1875 L 17.863281 18.410156 C 20.398438 15.039062 23.804688 14 24.289062 13.867188 Z M 29.710938 16.917969 C 29.679688 16.691406 29.644531 16.46875 29.605469 16.246094 C 29.789062 16.367188 29.96875 16.492188 30.144531 16.617188 C 30 16.714844 29.855469 16.816406 29.710938 16.917969 Z M 29.0625 15.902344 C 29.144531 16.335938 29.214844 16.777344 29.273438 17.21875 C 29.121094 17.328125 28.964844 17.441406 28.8125 17.554688 C 28.730469 16.878906 28.621094 16.214844 28.484375 15.566406 C 28.679688 15.675781 28.875 15.789062 29.0625 15.902344 Z M 24.972656 20.613281 C 24.824219 20.414062 24.683594 20.203125 24.542969 19.988281 C 25.039062 19.875 25.546875 19.773438 26.066406 19.683594 C 25.703125 19.988281 25.335938 20.296875 24.972656 20.613281 Z M 23.300781 22.121094 C 22.257812 20.554688 21.523438 18.902344 21.0625 17.078125 C 21.222656 16.933594 21.378906 16.796875 21.535156 16.667969 C 22.070312 18.667969 22.804688 20.316406 23.773438 21.6875 C 23.617188 21.832031 23.460938 21.972656 23.300781 22.121094 Z M 24.128906 21.363281 C 23.175781 20.003906 22.457031 18.359375 21.941406 16.34375 C 22.066406 16.25 22.191406 16.160156 22.316406 16.074219 C 22.585938 16.992188 22.894531 17.828125 23.246094 18.59375 C 23.253906 18.617188 23.265625 18.640625 23.277344 18.660156 C 23.488281 19.117188 23.714844 19.546875 23.960938 19.949219 C 23.960938 19.957031 23.964844 19.960938 23.96875 19.964844 C 24.171875 20.304688 24.386719 20.621094 24.613281 20.925781 C 24.453125 21.070312 24.289062 21.21875 24.128906 21.363281 Z M 24.296875 14.957031 C 25.09375 15.859375 25.742188 16.785156 26.265625 17.769531 C 26.140625 17.785156 26.015625 17.800781 25.890625 17.816406 C 25.371094 16.800781 24.730469 15.890625 23.980469 15.101562 C 24.089844 15.050781 24.195312 15 24.296875 14.957031 Z M 24.59375 18.035156 C 24.558594 17.421875 24.4375 16.785156 24.226562 16.105469 C 24.664062 16.652344 25.054688 17.25 25.394531 17.890625 C 25.125 17.933594 24.855469 17.980469 24.59375 18.035156 Z M 23.457031 15.363281 C 23.867188 16.371094 24.085938 17.285156 24.121094 18.132812 C 23.953125 18.171875 23.785156 18.214844 23.617188 18.253906 C 23.28125 17.511719 22.988281 16.691406 22.726562 15.796875 C 22.980469 15.632812 23.222656 15.492188 23.457031 15.363281 Z M 26.789062 19.09375 C 25.929688 19.210938 25.085938 19.371094 24.28125 19.558594 C 24.121094 19.285156 23.96875 18.996094 23.820312 18.695312 C 25.152344 18.363281 26.578125 18.164062 28.066406 18.101562 C 27.636719 18.421875 27.210938 18.753906 26.789062 19.09375 Z M 27.933594 15.273438 C 28.109375 16.03125 28.242188 16.816406 28.34375 17.617188 C 28.070312 17.625 27.796875 17.636719 27.53125 17.65625 C 27.414062 16.574219 27.183594 15.601562 26.839844 14.757812 C 27.21875 14.921875 27.585938 15.09375 27.933594 15.273438 Z M 27.054688 17.691406 C 26.960938 17.699219 26.863281 17.707031 26.769531 17.714844 C 26.238281 16.679688 25.578125 15.710938 24.761719 14.765625 C 25.390625 14.535156 25.832031 14.441406 25.988281 14.414062 C 26.0625 14.445312 26.136719 14.472656 26.210938 14.5 C 26.640625 15.394531 26.921875 16.464844 27.054688 17.691406 Z M 20.667969 17.449219 C 20.816406 17.996094 20.984375 18.527344 21.183594 19.046875 C 20.535156 19.304688 19.902344 19.601562 19.292969 19.933594 L 18.925781 19.542969 C 19.492188 18.722656 20.082031 18.03125 20.667969 17.449219 Z M 21.359375 19.484375 C 21.472656 19.765625 21.597656 20.042969 21.726562 20.316406 C 21.210938 20.503906 20.710938 20.710938 20.230469 20.929688 L 19.628906 20.289062 C 20.1875 19.992188 20.769531 19.722656 21.359375 19.484375 Z M 21.941406 20.746094 C 22.191406 21.234375 22.472656 21.714844 22.777344 22.1875 C 22.363281 22.226562 21.949219 22.273438 21.542969 22.324219 L 20.574219 21.296875 C 21.015625 21.097656 21.472656 20.914062 21.941406 20.746094 Z M 21.480469 22.808594 C 21.894531 22.753906 22.3125 22.710938 22.734375 22.667969 C 22.316406 23.070312 21.902344 23.476562 21.492188 23.894531 C 20.871094 23.976562 20.265625 24.070312 19.699219 24.179688 C 18.640625 24.382812 17.515625 24.679688 16.351562 25.058594 C 16.476562 24.605469 16.621094 24.152344 16.785156 23.710938 C 17.964844 23.394531 19.210938 23.136719 20.492188 22.945312 C 20.824219 22.894531 21.152344 22.851562 21.480469 22.808594 Z M 15.808594 30.425781 C 15.792969 30.160156 15.78125 29.898438 15.78125 29.632812 C 15.957031 29.6875 16.132812 29.738281 16.3125 29.785156 C 16.144531 29.996094 15.972656 30.210938 15.808594 30.425781 Z M 16.632812 29.378906 C 16.484375 29.339844 16.335938 29.304688 16.1875 29.261719 C 16.449219 29.140625 16.726562 29.027344 17.007812 28.917969 C 16.882812 29.070312 16.757812 29.222656 16.632812 29.378906 Z M 17.601562 28.195312 C 16.953125 28.414062 16.347656 28.660156 15.785156 28.929688 C 15.792969 28.683594 15.804688 28.441406 15.824219 28.199219 C 16.621094 27.894531 17.445312 27.625 18.28125 27.394531 C 18.054688 27.660156 17.828125 27.925781 17.601562 28.195312 Z M 18.828125 26.757812 C 17.824219 27.011719 16.832031 27.320312 15.867188 27.679688 C 15.894531 27.414062 15.929688 27.148438 15.96875 26.886719 C 16.851562 26.574219 17.765625 26.300781 18.6875 26.074219 C 19 25.996094 19.320312 25.925781 19.640625 25.855469 C 19.367188 26.15625 19.097656 26.453125 18.828125 26.757812 Z M 20.183594 25.261719 C 19.644531 25.367188 19.101562 25.484375 18.574219 25.613281 C 17.722656 25.824219 16.878906 26.074219 16.058594 26.355469 C 16.105469 26.101562 16.160156 25.851562 16.21875 25.601562 C 17.460938 25.183594 18.660156 24.859375 19.789062 24.644531 C 20.160156 24.574219 20.550781 24.507812 20.949219 24.449219 C 20.695312 24.71875 20.4375 24.988281 20.183594 25.261719 Z M 17.601562 23.015625 C 17.867188 22.820312 18.144531 22.628906 18.429688 22.449219 L 18.734375 22.773438 C 18.351562 22.847656 17.972656 22.929688 17.601562 23.015625 Z M 17.171875 22.746094 C 17.335938 22.371094 17.503906 22.007812 17.683594 21.652344 L 18.101562 22.097656 C 17.78125 22.304688 17.472656 22.519531 17.171875 22.746094 Z M 16.566406 22.945312 C 16.074219 24.160156 15.722656 25.410156 15.519531 26.691406 C 15.519531 26.695312 15.519531 26.695312 15.519531 26.699219 C 15.449219 27.136719 15.394531 27.578125 15.359375 28.019531 C 15.359375 28.023438 15.359375 28.023438 15.359375 28.027344 C 15.324219 28.457031 15.308594 28.890625 15.304688 29.328125 C 15.304688 29.328125 15.304688 29.332031 15.304688 29.332031 C 15.304688 29.332031 15.304688 29.335938 15.304688 29.335938 C 15.300781 29.882812 15.324219 30.4375 15.371094 30.992188 C 15.105469 31.339844 14.839844 31.691406 14.574219 32.046875 C 14.160156 28.101562 14.898438 23.851562 16.585938 20.488281 L 17.332031 21.28125 C 17.0625 21.8125 16.804688 22.371094 16.566406 22.945312 Z M 14.160156 32.617188 C 13.996094 32.84375 13.828125 33.070312 13.660156 33.304688 C 13.160156 28.246094 13.964844 23.746094 16.050781 19.917969 L 16.238281 20.121094 C 14.382812 23.730469 13.609375 28.382812 14.160156 32.617188 Z M 13.246094 33.894531 C 13.097656 34.105469 12.949219 34.316406 12.800781 34.53125 C 12.515625 33 12.4375 31.296875 12.554688 29.542969 C 12.554688 29.535156 12.554688 29.53125 12.554688 29.527344 C 12.730469 26.867188 13.347656 24.097656 14.359375 21.675781 C 14.699219 20.863281 15.089844 20.085938 15.515625 19.351562 L 15.707031 19.554688 C 13.441406 23.636719 12.613281 28.457031 13.246094 33.894531 Z M 11.71875 33.628906 C 11.457031 32.683594 11.324219 31.597656 11.324219 30.398438 C 11.566406 30.253906 11.8125 30.109375 12.054688 29.972656 C 11.984375 31.496094 12.054688 32.980469 12.28125 34.335938 C 12.085938 34.105469 11.894531 33.871094 11.71875 33.628906 Z M 10.851562 30.695312 C 10.863281 31.355469 10.914062 31.984375 11.007812 32.574219 C 10.722656 32.101562 10.464844 31.605469 10.238281 31.09375 C 10.441406 30.957031 10.644531 30.824219 10.851562 30.695312 Z M 13.527344 21.203125 C 12.769531 22.195312 12.121094 23.527344 11.644531 25.097656 C 11.519531 25.160156 11.402344 25.21875 11.289062 25.277344 C 11.5 24.148438 11.796875 23.078125 12.179688 22.09375 C 12.605469 21.78125 13.054688 21.480469 13.527344 21.203125 Z M 13.945312 21.4375 C 13.9375 21.457031 13.929688 21.476562 13.921875 21.492188 C 13.519531 22.457031 13.179688 23.480469 12.902344 24.527344 C 12.667969 24.625 12.445312 24.722656 12.230469 24.824219 C 12.683594 23.453125 13.269531 22.300781 13.945312 21.4375 Z M 11.695312 21.328125 C 12.703125 20.5625 13.785156 19.933594 14.917969 19.441406 C 14.792969 19.664062 14.671875 19.886719 14.558594 20.113281 C 13.578125 20.59375 12.671875 21.136719 11.851562 21.746094 C 11.835938 21.753906 11.820312 21.761719 11.808594 21.777344 C 11.527344 21.984375 11.253906 22.199219 10.996094 22.421875 C 11.214844 22.054688 11.453125 21.691406 11.695312 21.328125 Z M 10.222656 23.804688 C 10.609375 23.394531 11.03125 23.007812 11.476562 22.636719 C 11.167969 23.558594 10.925781 24.539062 10.753906 25.5625 C 10.644531 25.621094 10.539062 25.683594 10.441406 25.738281 C 10.46875 25.507812 10.503906 25.273438 10.546875 25.039062 C 10.570312 24.910156 10.488281 24.785156 10.359375 24.761719 C 10.230469 24.738281 10.105469 24.824219 10.082031 24.953125 C 10.011719 25.320312 9.964844 25.6875 9.929688 26.046875 C 9.582031 26.265625 9.3125 26.449219 9.125 26.589844 C 9.117188 26.496094 9.109375 26.40625 9.105469 26.3125 C 9.136719 26.265625 9.167969 26.214844 9.1875 26.15625 C 9.46875 25.378906 9.816406 24.589844 10.222656 23.804688 Z M 9.074219 27.230469 C 9.082031 27.226562 9.46875 26.894531 10.242188 26.414062 C 10.246094 26.414062 10.25 26.410156 10.253906 26.40625 C 10.855469 26.035156 11.683594 25.578125 12.753906 25.105469 C 12.636719 25.597656 12.53125 26.09375 12.441406 26.589844 C 10.597656 27.429688 9.304688 28.179688 9.070312 28.320312 C 8.976562 28.332031 8.777344 28.328125 8.683594 28.082031 C 8.527344 27.664062 9.058594 27.242188 9.074219 27.230469 Z M 8.867188 29.382812 C 8.746094 29.03125 9.257812 28.757812 9.261719 28.753906 C 9.265625 28.753906 9.265625 28.753906 9.269531 28.75 C 9.269531 28.75 9.273438 28.75 9.277344 28.746094 C 9.289062 28.738281 10.503906 28.011719 12.347656 27.152344 C 12.304688 27.429688 12.265625 27.707031 12.230469 27.984375 C 11.261719 28.480469 10.308594 29.042969 9.394531 29.652344 C 9.359375 29.667969 9.214844 29.71875 9.089844 29.667969 C 8.996094 29.628906 8.921875 29.53125 8.867188 29.382812 Z M 9.519531 30.871094 C 9.441406 30.851562 9.375 30.789062 9.316406 30.679688 C 9.152344 30.382812 9.632812 30.0625 9.640625 30.058594 C 10.457031 29.511719 11.300781 29.011719 12.160156 28.554688 C 12.132812 28.839844 12.105469 29.125 12.085938 29.410156 C 11.3125 29.835938 10.546875 30.308594 9.808594 30.808594 C 9.769531 30.835938 9.636719 30.898438 9.519531 30.871094 Z M 12.902344 35.941406 C 12.59375 35.703125 12.84375 35.300781 12.871094 35.261719 C 14.921875 32.261719 17.015625 29.546875 19.167969 27.09375 C 19.167969 27.09375 19.167969 27.089844 19.171875 27.089844 C 19.609375 26.589844 20.054688 26.101562 20.5 25.621094 C 20.5 25.617188 20.503906 25.613281 20.507812 25.613281 C 21.507812 24.53125 22.523438 23.507812 23.554688 22.535156 C 23.5625 22.527344 23.574219 22.519531 23.578125 22.511719 C 24.074219 22.046875 24.578125 21.59375 25.078125 21.152344 C 25.078125 21.148438 25.082031 21.148438 25.082031 21.148438 C 26.855469 19.589844 28.675781 18.179688 30.546875 16.914062 C 30.75 17.066406 30.941406 17.21875 31.128906 17.371094 C 30.601562 17.734375 30.082031 18.113281 29.5625 18.503906 C 29.554688 18.507812 29.546875 18.515625 29.539062 18.519531 C 28.828125 19.054688 28.121094 19.609375 27.421875 20.1875 C 27.417969 20.191406 27.414062 20.195312 27.410156 20.199219 C 23.335938 23.574219 19.464844 27.722656 15.707031 32.753906 C 15.695312 32.765625 15.683594 32.773438 15.675781 32.789062 C 15.671875 32.792969 15.671875 32.800781 15.667969 32.808594 C 14.925781 33.796875 14.191406 34.820312 13.460938 35.882812 C 13.402344 35.9375 13.160156 36.140625 12.902344 35.941406 Z M 32.65625 18.808594 C 31.742188 18.777344 30.832031 18.777344 29.9375 18.8125 C 30.457031 18.429688 30.976562 18.050781 31.5 17.691406 C 31.925781 18.0625 32.3125 18.4375 32.65625 18.808594 Z M 34.902344 26.636719 C 34.898438 26.636719 34.894531 26.636719 34.890625 26.636719 C 34.292969 26.523438 33.699219 26.421875 33.109375 26.332031 C 33.105469 26.332031 33.097656 26.328125 33.09375 26.328125 C 31.871094 26.144531 30.671875 26.007812 29.507812 25.925781 C 29.550781 25.695312 29.585938 25.46875 29.621094 25.238281 C 30.246094 25.28125 30.886719 25.335938 31.523438 25.410156 C 31.53125 25.410156 31.542969 25.410156 31.550781 25.410156 C 31.667969 25.410156 31.773438 25.320312 31.785156 25.199219 C 31.800781 25.070312 31.707031 24.953125 31.574219 24.9375 C 30.941406 24.867188 30.3125 24.8125 29.691406 24.769531 C 29.726562 24.523438 29.753906 24.28125 29.78125 24.039062 C 32.375 24.121094 34.222656 24.328125 34.242188 24.328125 C 34.25 24.332031 34.261719 24.332031 34.269531 24.332031 C 34.386719 24.332031 34.492188 24.242188 34.503906 24.121094 C 34.519531 23.988281 34.425781 23.871094 34.296875 23.859375 C 34.277344 23.855469 32.425781 23.652344 29.835938 23.566406 C 29.871094 23.191406 29.898438 22.8125 29.921875 22.4375 C 32.75 22.527344 34.8125 22.792969 35.386719 22.875 C 35.671875 24.171875 35.757812 25.476562 35.644531 26.785156 C 35.398438 26.734375 35.148438 26.683594 34.902344 26.636719 Z M 29.214844 30.472656 L 28.695312 29.921875 C 30.148438 29.132812 31.574219 28.140625 33.144531 26.816406 C 33.289062 26.839844 33.433594 26.863281 33.574219 26.886719 C 32.332031 28.324219 30.867188 29.53125 29.214844 30.472656 Z M 33.207031 35.40625 C 32.980469 35.855469 32.652344 36.179688 32.203125 36.386719 L 26.679688 30.519531 L 25.078125 28.816406 C 25.074219 28.8125 25.074219 28.8125 25.074219 28.8125 L 23.792969 27.449219 C 24.371094 27.378906 24.953125 27.316406 25.539062 27.257812 L 26.558594 28.339844 C 26.558594 28.34375 26.558594 28.34375 26.558594 28.34375 L 27.324219 29.160156 C 27.347656 29.203125 27.378906 29.234375 27.421875 29.261719 L 28.140625 30.023438 Z M 33.828125 36.066406 C 33.609375 36.515625 33.273438 36.828125 32.800781 37.019531 L 32.542969 36.746094 C 32.96875 36.519531 33.304688 36.191406 33.550781 35.769531 Z M 34.484375 36.765625 C 34.269531 37.175781 33.925781 37.488281 33.449219 37.710938 L 33.144531 37.386719 C 33.585938 37.171875 33.929688 36.851562 34.171875 36.429688 Z M 35.078125 37.394531 C 34.898438 37.789062 34.558594 38.097656 34.042969 38.339844 L 33.789062 38.070312 C 34.238281 37.835938 34.582031 37.519531 34.824219 37.125 Z M 28.089844 32.707031 C 27.601562 34.269531 26.699219 35.664062 25.40625 36.867188 C 26.28125 35.425781 27.042969 33.890625 27.6875 32.28125 Z M 27.933594 34.34375 C 28.347656 34.199219 28.761719 34.03125 29.167969 33.855469 L 29.445312 34.148438 C 28.847656 34.515625 28.078125 34.953125 27.367188 35.304688 C 27.574219 34.992188 27.761719 34.671875 27.933594 34.34375 Z M 28.21875 33.730469 C 28.304688 33.523438 28.386719 33.316406 28.460938 33.101562 L 28.824219 33.484375 C 28.621094 33.570312 28.421875 33.652344 28.21875 33.730469 Z M 24.566406 38.175781 C 25.433594 37.542969 26.175781 36.84375 26.789062 36.089844 C 27.453125 35.816406 28.261719 35.390625 28.980469 34.976562 C 27.792969 36.507812 26.261719 37.6875 24.257812 38.621094 C 24.363281 38.472656 24.464844 38.328125 24.566406 38.175781 Z M 25.769531 33.105469 C 24.832031 33.402344 23.871094 33.574219 22.910156 33.621094 C 22.78125 33.628906 22.679688 33.742188 22.683594 33.871094 C 22.691406 34 22.796875 34.097656 22.921875 34.097656 C 22.925781 34.097656 22.929688 34.097656 22.933594 34.097656 C 23.792969 34.054688 24.648438 33.910156 25.496094 33.679688 C 25.34375 33.988281 25.191406 34.292969 25.03125 34.59375 C 22.296875 35.039062 19.367188 34.789062 16.324219 33.84375 C 16.269531 33.632812 16.222656 33.414062 16.175781 33.1875 C 17.273438 33.324219 18.351562 33.394531 19.402344 33.394531 C 21.773438 33.394531 24.011719 33.046875 26.09375 32.367188 C 25.988281 32.613281 25.882812 32.863281 25.769531 33.105469 Z M 26.332031 31.785156 C 23.320312 32.847656 19.957031 33.160156 16.320312 32.730469 C 16.648438 32.296875 16.976562 31.871094 17.304688 31.449219 C 17.683594 31.464844 18.058594 31.476562 18.429688 31.476562 C 21.066406 31.476562 23.398438 31.042969 25.679688 30.148438 L 26.097656 30.589844 C 24.433594 31.21875 22.652344 31.636719 20.648438 31.859375 C 20.519531 31.871094 20.425781 31.988281 20.441406 32.121094 C 20.453125 32.242188 20.554688 32.332031 20.675781 32.332031 C 20.683594 32.332031 20.691406 32.332031 20.703125 32.332031 C 22.816406 32.09375 24.699219 31.644531 26.449219 30.964844 L 26.59375 31.121094 C 26.511719 31.34375 26.421875 31.566406 26.332031 31.785156 Z M 27.433594 20.796875 C 27.527344 21.167969 27.613281 21.550781 27.6875 21.941406 C 27.550781 21.941406 27.410156 21.941406 27.273438 21.941406 C 27.214844 21.652344 27.152344 21.363281 27.085938 21.085938 C 27.199219 20.988281 27.316406 20.894531 27.433594 20.796875 Z M 34.277344 20.820312 C 34.726562 21.484375 35.023438 22.03125 35.191406 22.371094 C 34.375 22.261719 32.457031 22.042969 29.949219 21.964844 C 29.960938 21.648438 29.96875 21.335938 29.972656 21.023438 C 31.417969 20.738281 32.863281 20.667969 34.277344 20.820312 Z M 28.9375 28.535156 C 29.847656 27.988281 30.785156 27.34375 31.722656 26.617188 C 31.984375 26.648438 32.25 26.683594 32.515625 26.722656 C 31.179688 27.824219 29.945312 28.683594 28.699219 29.378906 C 28.78125 29.097656 28.859375 28.816406 28.9375 28.535156 Z M 29.101562 27.875 C 29.222656 27.382812 29.328125 26.886719 29.425781 26.394531 C 29.957031 26.429688 30.492188 26.480469 31.039062 26.539062 C 30.386719 27.027344 29.742188 27.472656 29.101562 27.875 Z M 29.457031 19.171875 C 29.644531 22.492188 29.210938 26.007812 28.199219 29.394531 L 27.808594 28.976562 C 27.9375 28.53125 28.054688 28.082031 28.164062 27.628906 C 28.167969 27.613281 28.171875 27.59375 28.175781 27.574219 C 28.230469 27.347656 28.28125 27.125 28.332031 26.898438 C 28.335938 26.882812 28.335938 26.871094 28.339844 26.855469 C 28.386719 26.636719 28.429688 26.414062 28.46875 26.195312 C 28.484375 26.164062 28.492188 26.132812 28.492188 26.101562 C 28.496094 26.09375 28.492188 26.089844 28.492188 26.085938 C 28.558594 25.730469 28.617188 25.375 28.671875 25.019531 C 28.679688 24.996094 28.6875 24.972656 28.691406 24.945312 C 28.691406 24.933594 28.6875 24.925781 28.6875 24.917969 C 28.738281 24.558594 28.785156 24.199219 28.824219 23.84375 C 28.832031 23.820312 28.839844 23.800781 28.839844 23.78125 C 28.839844 23.769531 28.835938 23.761719 28.835938 23.753906 C 28.890625 23.242188 28.933594 22.730469 28.960938 22.222656 C 28.960938 22.207031 28.96875 22.195312 28.96875 22.175781 C 28.96875 22.167969 28.964844 22.160156 28.964844 22.148438 C 28.980469 21.804688 28.992188 21.457031 28.996094 21.113281 C 29.003906 21.089844 29.003906 21.0625 29 21.035156 C 29.003906 20.535156 29 20.035156 28.980469 19.542969 C 29.140625 19.421875 29.296875 19.296875 29.457031 19.171875 Z M 27.121094 28.25 C 27.273438 28.171875 27.425781 28.09375 27.578125 28.011719 C 27.53125 28.199219 27.476562 28.386719 27.425781 28.570312 Z M 28.171875 21.9375 C 28.144531 21.796875 28.117188 21.65625 28.089844 21.519531 C 28.230469 21.472656 28.375 21.429688 28.519531 21.386719 C 28.511719 21.570312 28.511719 21.753906 28.503906 21.9375 C 28.390625 21.9375 28.28125 21.9375 28.171875 21.9375 Z M 27.730469 27.390625 C 27.410156 27.566406 27.09375 27.734375 26.78125 27.890625 L 26.132812 27.199219 C 26.6875 27.148438 27.246094 27.109375 27.804688 27.070312 C 27.78125 27.175781 27.753906 27.285156 27.730469 27.390625 Z M 28.515625 19.914062 C 28.523438 20.234375 28.53125 20.5625 28.527344 20.886719 C 28.347656 20.941406 28.167969 20.996094 27.984375 21.054688 C 27.9375 20.851562 27.886719 20.65625 27.832031 20.464844 C 28.058594 20.277344 28.285156 20.09375 28.515625 19.914062 Z M 26.679688 21.4375 C 26.71875 21.605469 26.757812 21.777344 26.789062 21.949219 C 26.550781 21.957031 26.3125 21.964844 26.070312 21.972656 C 26.273438 21.792969 26.476562 21.613281 26.679688 21.4375 Z M 25.527344 22.464844 C 26.492188 22.421875 27.480469 22.40625 28.472656 22.414062 C 28.449219 22.785156 28.417969 23.160156 28.378906 23.539062 C 26.945312 23.523438 25.574219 23.558594 24.285156 23.636719 C 24.695312 23.238281 25.109375 22.847656 25.527344 22.464844 Z M 23.761719 24.144531 C 25.183594 24.039062 26.71875 23.996094 28.332031 24.011719 C 28.304688 24.238281 28.273438 24.464844 28.242188 24.6875 C 26.464844 24.625 24.730469 24.675781 23.066406 24.84375 C 23.296875 24.609375 23.527344 24.375 23.761719 24.144531 Z M 22.542969 25.378906 C 24.339844 25.167969 26.230469 25.09375 28.171875 25.160156 C 28.136719 25.390625 28.09375 25.621094 28.054688 25.847656 C 25.886719 25.773438 23.785156 25.882812 21.792969 26.175781 C 22.042969 25.90625 22.292969 25.640625 22.542969 25.378906 Z M 21.273438 26.734375 C 23.390625 26.382812 25.636719 26.242188 27.964844 26.320312 C 27.945312 26.410156 27.933594 26.496094 27.914062 26.585938 C 26.046875 26.710938 24.199219 26.902344 22.390625 27.15625 C 22.382812 27.160156 22.378906 27.160156 22.371094 27.160156 C 22.027344 27.210938 21.6875 27.261719 21.351562 27.3125 C 21.34375 27.3125 21.339844 27.316406 21.335938 27.316406 C 21.105469 27.351562 20.878906 27.386719 20.652344 27.425781 C 20.859375 27.195312 21.066406 26.960938 21.273438 26.734375 Z M 21.933594 27.703125 C 21.683594 28.121094 21.5 28.515625 21.371094 28.9375 C 21.332031 29.0625 21.398438 29.195312 21.523438 29.234375 C 21.546875 29.242188 21.574219 29.246094 21.597656 29.246094 C 21.695312 29.246094 21.789062 29.179688 21.824219 29.078125 C 21.976562 28.589844 22.207031 28.132812 22.558594 27.613281 C 22.777344 27.582031 22.992188 27.550781 23.210938 27.523438 L 24.480469 28.875 C 23.136719 29.355469 21.835938 29.640625 20.554688 29.726562 C 20.761719 29.027344 21.078125 28.382812 21.515625 27.765625 C 21.65625 27.746094 21.792969 27.722656 21.933594 27.703125 Z M 20.148438 27.992188 C 20.390625 27.949219 20.632812 27.910156 20.878906 27.871094 C 20.507812 28.460938 20.238281 29.082031 20.058594 29.75 C 19.601562 29.761719 19.148438 29.75 18.699219 29.710938 C 19.179688 29.125 19.664062 28.550781 20.148438 27.992188 Z M 18.332031 30.15625 C 18.785156 30.207031 19.242188 30.234375 19.699219 30.234375 C 19.875 30.234375 20.050781 30.226562 20.230469 30.21875 C 20.234375 30.21875 20.234375 30.222656 20.238281 30.222656 C 20.242188 30.222656 20.246094 30.21875 20.25 30.21875 C 21.746094 30.15625 23.261719 29.835938 24.835938 29.253906 L 25.332031 29.777344 C 22.945312 30.6875 20.488281 31.074219 17.667969 30.988281 C 17.886719 30.707031 18.109375 30.429688 18.332031 30.15625 Z M 29.550781 30.828125 C 30.222656 30.4375 30.867188 30.007812 31.476562 29.53125 C 31.257812 30.421875 30.988281 31.253906 30.671875 32.019531 Z M 29.976562 20.542969 C 29.972656 20.121094 29.960938 19.703125 29.941406 19.289062 C 30.976562 19.246094 32.035156 19.25 33.101562 19.300781 C 33.40625 19.648438 33.675781 19.988281 33.914062 20.308594 C 32.617188 20.207031 31.296875 20.285156 29.976562 20.542969 Z M 14.640625 35.027344 C 14.820312 35.699219 15.035156 36.34375 15.289062 36.945312 C 14.828125 36.65625 14.386719 36.335938 13.964844 35.988281 C 14.191406 35.664062 14.414062 35.34375 14.640625 35.027344 Z M 17.167969 38.6875 C 16.761719 38.589844 16.253906 37.863281 16.03125 37.433594 C 15.601562 36.554688 15.253906 35.578125 14.996094 34.523438 C 15.25 34.175781 15.5 33.832031 15.75 33.492188 C 16.34375 36.191406 17.324219 38.039062 17.570312 38.472656 C 17.523438 38.585938 17.410156 38.746094 17.167969 38.6875 Z M 17.992188 38.25 C 17.808594 37.925781 17.042969 36.492188 16.460938 34.378906 C 18.480469 34.980469 20.449219 35.28125 22.347656 35.28125 C 23.164062 35.28125 23.96875 35.222656 24.757812 35.113281 C 24.539062 35.507812 24.308594 35.898438 24.074219 36.28125 C 22.628906 36.597656 21.066406 36.757812 19.425781 36.757812 C 19.378906 36.757812 19.328125 36.757812 19.289062 36.757812 C 19.160156 36.757812 19.054688 36.863281 19.050781 36.992188 C 19.050781 37.125 19.15625 37.230469 19.289062 37.230469 C 19.335938 37.230469 19.378906 37.230469 19.425781 37.230469 C 20.929688 37.230469 22.371094 37.097656 23.71875 36.839844 C 23.257812 37.550781 22.769531 38.238281 22.25 38.898438 C 22.226562 38.929688 22.207031 38.964844 22.1875 38.996094 C 21.214844 38.980469 20.238281 38.859375 19.28125 38.628906 C 18.84375 38.527344 18.414062 38.394531 17.992188 38.25 Z M 23 39.523438 C 22.941406 39.601562 22.839844 39.636719 22.75 39.613281 C 22.714844 39.605469 22.683594 39.589844 22.65625 39.566406 C 22.605469 39.523438 22.570312 39.460938 22.566406 39.390625 C 22.558594 39.320312 22.578125 39.25 22.625 39.195312 C 23.265625 38.378906 23.859375 37.519531 24.414062 36.628906 C 24.417969 36.621094 24.421875 36.613281 24.429688 36.605469 C 24.761719 36.066406 25.078125 35.515625 25.378906 34.949219 C 25.386719 34.941406 25.390625 34.929688 25.398438 34.917969 C 25.882812 34.003906 26.328125 33.058594 26.726562 32.082031 C 26.730469 32.074219 26.734375 32.066406 26.734375 32.058594 C 26.8125 31.875 26.882812 31.6875 26.953125 31.503906 L 27.332031 31.902344 C 26.234375 34.695312 24.777344 37.261719 23 39.523438 Z M 25.15625 38.710938 C 27.167969 37.65625 28.6875 36.316406 29.851562 34.578125 L 30.175781 34.921875 C 29.773438 35.425781 29.332031 35.902344 28.851562 36.339844 C 28.757812 36.429688 28.75 36.578125 28.835938 36.675781 C 28.882812 36.726562 28.949219 36.753906 29.011719 36.753906 C 29.070312 36.753906 29.128906 36.730469 29.171875 36.691406 C 29.65625 36.25 30.097656 35.773438 30.503906 35.269531 L 31.019531 35.820312 C 29.335938 37.25 27.304688 38.25 25.15625 38.710938 Z M 36.820312 39.542969 C 36.8125 39.730469 36.734375 39.902344 36.597656 40.03125 C 36.316406 40.296875 35.871094 40.285156 35.609375 40 L 34.386719 38.703125 C 34.855469 38.457031 35.203125 38.140625 35.421875 37.757812 L 36.628906 39.039062 C 36.757812 39.175781 36.824219 39.355469 36.820312 39.542969 Z M 32.667969 34.140625 L 31.03125 32.402344 C 31.464844 31.390625 31.816406 30.261719 32.078125 29.042969 C 32.351562 28.8125 32.617188 28.566406 32.875 28.316406 C 32.6875 29.609375 32.367188 30.8125 31.925781 31.902344 C 31.878906 32.023438 31.9375 32.160156 32.058594 32.210938 C 32.085938 32.222656 32.117188 32.226562 32.144531 32.226562 C 32.238281 32.226562 32.328125 32.171875 32.367188 32.078125 C 32.894531 30.78125 33.25 29.328125 33.429688 27.757812 C 33.5625 27.617188 33.691406 27.472656 33.820312 27.328125 C 33.8125 28.128906 33.652344 29.109375 33.332031 30.257812 C 33.296875 30.382812 33.371094 30.515625 33.496094 30.550781 C 33.519531 30.554688 33.539062 30.558594 33.558594 30.558594 C 33.664062 30.558594 33.757812 30.488281 33.789062 30.386719 C 34.164062 29.042969 34.332031 27.910156 34.289062 27.007812 C 34.398438 27.027344 34.511719 27.046875 34.621094 27.070312 C 34.699219 27.816406 34.59375 28.6875 34.300781 29.660156 C 34.261719 29.785156 34.332031 29.917969 34.457031 29.953125 C 34.480469 29.960938 34.503906 29.964844 34.527344 29.964844 C 34.628906 29.964844 34.722656 29.898438 34.753906 29.796875 C 35.050781 28.824219 35.167969 27.9375 35.109375 27.160156 C 35.273438 27.191406 35.4375 27.226562 35.601562 27.257812 C 35.539062 27.777344 35.449219 28.292969 35.324219 28.8125 C 34.847656 30.792969 33.949219 32.582031 32.667969 34.140625 Z M 31.542969 14.199219 C 33.542969 15.78125 34.5 17.808594 34.953125 19.480469 C 33.128906 15.304688 29.007812 12.679688 25.25 11.511719 C 26.980469 11.769531 29.335938 12.453125 31.542969 14.199219 Z M 20.71875 11.28125 C 24.710938 11.125 31.722656 13.738281 34.378906 19.351562 C 33.121094 17.296875 31.285156 15.554688 28.886719 14.148438 C 28.773438 14.082031 28.628906 14.121094 28.5625 14.230469 C 28.496094 14.34375 28.53125 14.492188 28.644531 14.558594 C 30.996094 15.9375 32.792969 17.644531 34.011719 19.660156 C 33.835938 19.4375 33.648438 19.207031 33.441406 18.972656 C 33.425781 18.929688 33.394531 18.898438 33.355469 18.871094 C 32.890625 18.34375 32.347656 17.800781 31.722656 17.257812 C 31.71875 17.253906 31.71875 17.253906 31.71875 17.25 C 31.695312 17.214844 31.660156 17.191406 31.625 17.171875 C 31.34375 16.933594 31.050781 16.699219 30.738281 16.464844 C 30.714844 16.4375 30.6875 16.417969 30.660156 16.40625 C 30.273438 16.121094 29.863281 15.839844 29.429688 15.570312 C 29.410156 15.554688 29.386719 15.542969 29.363281 15.53125 C 29.019531 15.320312 28.65625 15.113281 28.277344 14.917969 C 28.261719 14.90625 28.246094 14.898438 28.230469 14.894531 C 27.675781 14.605469 27.089844 14.335938 26.464844 14.089844 C 26.460938 14.089844 26.457031 14.085938 26.453125 14.085938 C 26.335938 14.039062 26.21875 13.996094 26.101562 13.953125 C 26.09375 13.949219 26.085938 13.945312 26.074219 13.941406 C 26 13.914062 25.929688 13.886719 25.851562 13.859375 C 20.992188 12.128906 17.578125 12.925781 15.714844 13.75 C 17.019531 12.789062 18.773438 12.25 20.964844 12.15625 C 21.097656 12.152344 21.199219 12.042969 21.191406 11.910156 C 21.1875 11.777344 21.074219 11.679688 20.945312 11.683594 C 18.523438 11.789062 16.601562 12.414062 15.203125 13.546875 C 16.273438 12.179688 18.199219 11.375 20.71875 11.28125 Z M 10.554688 14.550781 C 10.347656 14.71875 10.160156 15.070312 10.441406 15.78125 C 10.480469 15.875 10.453125 15.984375 10.375 16.054688 C 10.320312 16.105469 10.242188 16.125 10.167969 16.109375 C 10.125 16.101562 10.046875 16.074219 10 15.988281 C 9.621094 15.242188 9.15625 13.871094 10.28125 13.058594 C 11.394531 12.253906 13.015625 13.957031 13.03125 13.972656 L 20.964844 22.402344 C 20.785156 22.425781 20.601562 22.449219 20.421875 22.476562 C 20.039062 22.53125 19.664062 22.597656 19.289062 22.664062 L 15.644531 18.796875 C 15.644531 18.796875 15.644531 18.792969 15.644531 18.792969 L 14.492188 17.570312 C 14.484375 17.5625 14.480469 17.550781 14.472656 17.542969 C 14.46875 17.539062 14.460938 17.539062 14.457031 17.535156 L 13.765625 16.796875 C 13.761719 16.796875 13.761719 16.796875 13.761719 16.796875 L 11.960938 14.882812 C 11.660156 14.578125 11.023438 14.167969 10.554688 14.550781 Z M 13.183594 16.875 C 12.796875 17.03125 12.402344 17.203125 12.007812 17.390625 C 12.257812 17.074219 12.527344 16.769531 12.808594 16.476562 Z M 11.398438 18.210938 C 11.882812 17.964844 12.363281 17.742188 12.839844 17.535156 C 11.625 18.890625 10.554688 20.34375 9.667969 21.828125 C 10.0625 20.539062 10.644531 19.320312 11.398438 18.210938 Z M 8.277344 25.824219 C 8.542969 25.082031 8.867188 24.332031 9.246094 23.582031 C 10.332031 21.425781 11.84375 19.28125 13.640625 17.359375 L 13.980469 17.71875 C 12.285156 19.527344 10.855469 21.546875 9.804688 23.582031 C 9.804688 23.582031 9.800781 23.582031 9.800781 23.582031 C 9.386719 24.390625 9.027344 25.195312 8.738281 25.996094 C 8.695312 26.121094 8.566406 26.195312 8.457031 26.167969 L 8.425781 26.160156 C 8.292969 26.109375 8.226562 25.960938 8.277344 25.824219 Z M 8.277344 25.824219 " clip-rule="nonzero"/></clipPath></defs><g clip-path="url(#d6d693f5e7)"><g clip-path="url(#984a792724)"><path fill="#000000" d="M 7.691406 10.4375 L 7.691406 40.695312 L 37.300781 40.695312 L 37.300781 10.4375 Z M 7.691406 10.4375 " fill-opacity="1" fill-rule="nonzero"/></g></g><g fill="#000000" fill-opacity="1"><g transform="translate(4.851013, 12.275404)"><g><path d="M 0.53125 -0.28125 L -1.84375 -4.734375 L 0.84375 -6.171875 L 1.109375 -5.6875 L -1.03125 -4.546875 L -0.234375 -3.046875 L 1.78125 -4.109375 L 2.03125 -3.625 L 0.015625 -2.5625 L 0.828125 -1.0625 L 3.015625 -2.21875 L 3.265625 -1.734375 Z M 0.53125 -0.28125 "/></g></g></g><g fill="#000000" fill-opacity="1"><g transform="translate(8.289803, 10.432588)"><g><path d="M 0.5625 -0.21875 L -1.296875 -4.90625 L -0.71875 -5.140625 L 0.9375 -0.96875 L 3.109375 -1.828125 L 3.3125 -1.3125 Z M 0.5625 -0.21875 "/></g></g></g><g fill="#000000" fill-opacity="1"><g transform="translate(11.682348, 9.071317)"><g><path d="M 0.59375 -0.15625 L -0.71875 -5.03125 L 2.21875 -5.828125 L 2.359375 -5.296875 L 0 -4.65625 L 0.453125 -3.015625 L 2.65625 -3.609375 L 2.796875 -3.078125 L 0.59375 -2.484375 L 1.03125 -0.84375 L 3.4375 -1.484375 L 3.578125 -0.953125 Z M 0.59375 -0.15625 "/></g></g></g><g fill="#000000" fill-opacity="1"><g transform="translate(15.403918, 8.017847)"><g><path d="M 3.578125 -3.96875 C 3.429688 -4.289062 3.222656 -4.53125 2.953125 -4.6875 C 2.679688 -4.851562 2.367188 -4.910156 2.015625 -4.859375 C 1.710938 -4.816406 1.445312 -4.703125 1.21875 -4.515625 C 1 -4.328125 0.832031 -4.070312 0.71875 -3.75 C 0.613281 -3.425781 0.59375 -3.050781 0.65625 -2.625 C 0.707031 -2.195312 0.828125 -1.84375 1.015625 -1.5625 C 1.203125 -1.28125 1.429688 -1.078125 1.703125 -0.953125 C 1.972656 -0.835938 2.265625 -0.800781 2.578125 -0.84375 C 2.859375 -0.882812 3.097656 -0.976562 3.296875 -1.125 C 3.503906 -1.269531 3.65625 -1.460938 3.75 -1.703125 C 3.84375 -1.941406 3.867188 -2.210938 3.828125 -2.515625 L 2.5 -2.328125 L 2.4375 -2.859375 L 4.34375 -3.109375 L 4.40625 -2.578125 C 4.46875 -2.160156 4.429688 -1.789062 4.296875 -1.46875 C 4.160156 -1.144531 3.953125 -0.878906 3.671875 -0.671875 C 3.390625 -0.460938 3.050781 -0.332031 2.65625 -0.28125 C 2.207031 -0.226562 1.800781 -0.28125 1.4375 -0.4375 C 1.070312 -0.601562 0.769531 -0.863281 0.53125 -1.21875 C 0.300781 -1.570312 0.148438 -2.015625 0.078125 -2.546875 C 0.00390625 -3.078125 0.0351562 -3.546875 0.171875 -3.953125 C 0.304688 -4.367188 0.523438 -4.695312 0.828125 -4.9375 C 1.128906 -5.1875 1.5 -5.34375 1.9375 -5.40625 C 2.28125 -5.445312 2.601562 -5.421875 2.90625 -5.328125 C 3.21875 -5.234375 3.484375 -5.070312 3.703125 -4.84375 C 3.921875 -4.625 4.082031 -4.359375 4.1875 -4.046875 Z M 3.578125 -3.96875 "/></g></g></g><g fill="#000000" fill-opacity="1"><g transform="translate(20.214962, 7.378673)"><g><path d="M 0.8125 0 L 0.171875 0 L 2.078125 -5.03125 L 2.703125 -5.03125 L 4.515625 0.03125 L 3.875 0.03125 L 3.375 -1.390625 L 1.34375 -1.40625 Z M 1.53125 -1.953125 L 3.1875 -1.9375 L 2.390625 -4.234375 L 2.359375 -4.234375 Z M 1.875 -5.484375 L 2.390625 -6.171875 L 2.90625 -5.484375 L 3.453125 -5.46875 L 3.453125 -5.5 L 2.65625 -6.546875 L 2.125 -6.546875 L 1.328125 -5.515625 L 1.328125 -5.484375 Z M 1.875 -5.484375 "/></g></g></g><g fill="#000000" fill-opacity="1"><g transform="translate(24.606024, 7.373483)"><g><path d="M 5.3125 -4.3125 L 4.5625 0.671875 L 3.96875 0.59375 L 1.828125 -3.734375 L 1.78125 -3.75 L 1.203125 0.171875 L 0.609375 0.09375 L 1.359375 -4.890625 L 1.9375 -4.8125 L 4.078125 -0.484375 L 4.125 -0.46875 L 4.71875 -4.390625 Z M 5.3125 -4.3125 "/></g></g></g><g fill="#000000" fill-opacity="1"><g transform="translate(29.46574, 8.081286)"><g><path d="M 5.46875 -1.984375 L 4.890625 -2.15625 C 4.898438 -2.382812 4.859375 -2.59375 4.765625 -2.78125 C 4.679688 -2.976562 4.554688 -3.144531 4.390625 -3.28125 C 4.234375 -3.425781 4.050781 -3.53125 3.84375 -3.59375 C 3.550781 -3.6875 3.257812 -3.691406 2.96875 -3.609375 C 2.6875 -3.523438 2.429688 -3.359375 2.203125 -3.109375 C 1.984375 -2.867188 1.804688 -2.539062 1.671875 -2.125 C 1.554688 -1.71875 1.523438 -1.34375 1.578125 -1 C 1.628906 -0.664062 1.75 -0.390625 1.9375 -0.171875 C 2.132812 0.0351562 2.378906 0.1875 2.671875 0.28125 C 2.878906 0.34375 3.085938 0.363281 3.296875 0.34375 C 3.515625 0.320312 3.710938 0.253906 3.890625 0.140625 C 4.078125 0.0234375 4.226562 -0.132812 4.34375 -0.34375 L 4.921875 -0.171875 C 4.773438 0.148438 4.570312 0.398438 4.3125 0.578125 C 4.050781 0.753906 3.765625 0.863281 3.453125 0.90625 C 3.148438 0.945312 2.835938 0.921875 2.515625 0.828125 C 2.109375 0.703125 1.769531 0.488281 1.5 0.1875 C 1.226562 -0.101562 1.054688 -0.457031 0.984375 -0.875 C 0.921875 -1.300781 0.960938 -1.769531 1.109375 -2.28125 C 1.265625 -2.800781 1.488281 -3.21875 1.78125 -3.53125 C 2.082031 -3.851562 2.425781 -4.0625 2.8125 -4.15625 C 3.195312 -4.257812 3.59375 -4.25 4 -4.125 C 4.320312 -4.03125 4.597656 -3.878906 4.828125 -3.671875 C 5.066406 -3.460938 5.242188 -3.210938 5.359375 -2.921875 C 5.484375 -2.628906 5.519531 -2.316406 5.46875 -1.984375 Z M 5.46875 -1.984375 "/></g></g></g><g fill="#000000" fill-opacity="1"><g transform="translate(34.069052, 9.540524)"><g><path d="M 3.046875 -4.203125 L 1.125 0.46875 L 0.5625 0.234375 L 2.484375 -4.4375 Z M 3.046875 -4.203125 "/></g></g></g><g fill="#000000" fill-opacity="1"><g transform="translate(35.610156, 10.091506)"><g><path d="M 0.71875 0.375 L 0.15625 0.078125 L 4.140625 -3.53125 L 4.703125 -3.234375 L 4 2.09375 L 3.4375 1.796875 L 3.625 0.296875 L 1.828125 -0.65625 Z M 2.25 -1.046875 L 3.71875 -0.28125 L 4.0625 -2.671875 L 4.03125 -2.6875 Z M 2.25 -1.046875 "/></g></g></g><g fill="#000000" fill-opacity="1"><g transform="translate(2.926707, 44.258389)"><g><path d="M 1.703125 1.015625 C 1.398438 0.847656 1.171875 0.648438 1.015625 0.421875 C 0.867188 0.203125 0.789062 -0.03125 0.78125 -0.28125 C 0.769531 -0.53125 0.828125 -0.769531 0.953125 -1 C 1.097656 -1.269531 1.300781 -1.453125 1.5625 -1.546875 C 1.832031 -1.648438 2.140625 -1.71875 2.484375 -1.75 C 2.441406 -2.007812 2.414062 -2.25 2.40625 -2.46875 C 2.40625 -2.6875 2.460938 -2.894531 2.578125 -3.09375 C 2.734375 -3.394531 2.957031 -3.582031 3.25 -3.65625 C 3.550781 -3.738281 3.863281 -3.691406 4.1875 -3.515625 C 4.40625 -3.390625 4.566406 -3.238281 4.671875 -3.0625 C 4.785156 -2.894531 4.847656 -2.71875 4.859375 -2.53125 C 4.878906 -2.351562 4.84375 -2.179688 4.75 -2.015625 C 4.632812 -1.796875 4.484375 -1.632812 4.296875 -1.53125 C 4.109375 -1.4375 3.882812 -1.375 3.625 -1.34375 L 3.15625 -1.28125 L 3.484375 0.421875 C 3.609375 0.335938 3.722656 0.238281 3.828125 0.125 C 3.929688 0.0078125 4.023438 -0.117188 4.109375 -0.265625 L 4.59375 0 C 4.425781 0.300781 4.25 0.523438 4.0625 0.671875 C 3.882812 0.828125 3.722656 0.9375 3.578125 1 L 3.796875 2.078125 L 3.171875 1.734375 L 3.0625 1.1875 C 2.832031 1.257812 2.597656 1.273438 2.359375 1.234375 C 2.117188 1.191406 1.898438 1.117188 1.703125 1.015625 Z M 2.96875 0.671875 L 2.609375 -1.203125 L 2.390625 -1.171875 C 2.109375 -1.128906 1.890625 -1.054688 1.734375 -0.953125 C 1.585938 -0.859375 1.5 -0.78125 1.46875 -0.71875 C 1.394531 -0.582031 1.359375 -0.429688 1.359375 -0.265625 C 1.367188 -0.109375 1.414062 0.0351562 1.5 0.171875 C 1.59375 0.316406 1.726562 0.441406 1.90625 0.546875 C 2.21875 0.710938 2.570312 0.753906 2.96875 0.671875 Z M 3.078125 -1.828125 L 3.46875 -1.890625 C 3.644531 -1.898438 3.789062 -1.929688 3.90625 -1.984375 C 4.03125 -2.035156 4.132812 -2.140625 4.21875 -2.296875 C 4.28125 -2.410156 4.289062 -2.546875 4.25 -2.703125 C 4.21875 -2.859375 4.117188 -2.984375 3.953125 -3.078125 C 3.847656 -3.128906 3.734375 -3.144531 3.609375 -3.125 C 3.492188 -3.113281 3.382812 -3.082031 3.28125 -3.03125 C 3.1875 -2.976562 3.113281 -2.90625 3.0625 -2.8125 C 3 -2.695312 2.972656 -2.550781 2.984375 -2.375 C 2.992188 -2.195312 3.023438 -2.015625 3.078125 -1.828125 Z M 3.078125 -1.828125 "/></g></g></g><g fill="#000000" fill-opacity="1"><g transform="translate(7.018174, 46.426054)"><g/></g></g><g fill="#000000" fill-opacity="1"><g transform="translate(8.984692, 47.353787)"><g><path d="M 5.515625 -1.859375 L 4.921875 -2.046875 C 4.953125 -2.285156 4.921875 -2.503906 4.828125 -2.703125 C 4.742188 -2.898438 4.617188 -3.066406 4.453125 -3.203125 C 4.296875 -3.347656 4.113281 -3.453125 3.90625 -3.515625 C 3.613281 -3.609375 3.328125 -3.617188 3.046875 -3.546875 C 2.765625 -3.472656 2.503906 -3.3125 2.265625 -3.0625 C 2.035156 -2.820312 1.851562 -2.492188 1.71875 -2.078125 C 1.59375 -1.671875 1.550781 -1.300781 1.59375 -0.96875 C 1.644531 -0.644531 1.765625 -0.367188 1.953125 -0.140625 C 2.140625 0.0859375 2.378906 0.25 2.671875 0.34375 C 2.878906 0.40625 3.085938 0.425781 3.296875 0.40625 C 3.515625 0.382812 3.710938 0.316406 3.890625 0.203125 C 4.078125 0.0976562 4.226562 -0.0507812 4.34375 -0.25 L 4.9375 -0.0625 C 4.769531 0.238281 4.554688 0.476562 4.296875 0.65625 C 4.035156 0.832031 3.75 0.9375 3.4375 0.96875 C 3.132812 1.007812 2.820312 0.976562 2.5 0.875 C 2.09375 0.738281 1.757812 0.519531 1.5 0.21875 C 1.238281 -0.0820312 1.078125 -0.445312 1.015625 -0.875 C 0.953125 -1.300781 1 -1.765625 1.15625 -2.265625 C 1.320312 -2.785156 1.554688 -3.195312 1.859375 -3.5 C 2.160156 -3.8125 2.503906 -4.015625 2.890625 -4.109375 C 3.273438 -4.203125 3.671875 -4.179688 4.078125 -4.046875 C 4.398438 -3.941406 4.675781 -3.78125 4.90625 -3.5625 C 5.144531 -3.351562 5.316406 -3.101562 5.421875 -2.8125 C 5.523438 -2.53125 5.554688 -2.210938 5.515625 -1.859375 Z M 5.515625 -1.859375 "/></g></g></g><g fill="#000000" fill-opacity="1"><g transform="translate(14.080622, 48.956691)"><g><path d="M 0.59375 0.109375 L 1.484375 -4.859375 L 3.171875 -4.5625 C 3.554688 -4.488281 3.863281 -4.359375 4.09375 -4.171875 C 4.320312 -3.992188 4.472656 -3.78125 4.546875 -3.53125 C 4.628906 -3.28125 4.644531 -3.007812 4.59375 -2.71875 C 4.53125 -2.394531 4.398438 -2.125 4.203125 -1.90625 C 4.003906 -1.695312 3.742188 -1.5625 3.421875 -1.5 L 4.171875 0.75 L 3.453125 0.625 L 2.765625 -1.5 C 2.722656 -1.507812 2.679688 -1.519531 2.640625 -1.53125 L 1.546875 -1.71875 L 1.203125 0.21875 Z M 1.65625 -2.25 L 2.734375 -2.0625 C 3.117188 -1.988281 3.410156 -2.023438 3.609375 -2.171875 C 3.816406 -2.316406 3.945312 -2.535156 4 -2.828125 C 4.050781 -3.128906 4.003906 -3.382812 3.859375 -3.59375 C 3.722656 -3.800781 3.457031 -3.941406 3.0625 -4.015625 L 2 -4.203125 Z M 1.65625 -2.25 "/></g></g></g><g fill="#000000" fill-opacity="1"><g transform="translate(18.746355, 49.80582)"><g><path d="M 4.984375 -2.3125 C 4.960938 -1.78125 4.84375 -1.328125 4.625 -0.953125 C 4.414062 -0.578125 4.140625 -0.289062 3.796875 -0.09375 C 3.453125 0.101562 3.066406 0.191406 2.640625 0.171875 C 2.210938 0.148438 1.832031 0.03125 1.5 -0.1875 C 1.164062 -0.40625 0.910156 -0.710938 0.734375 -1.109375 C 0.566406 -1.503906 0.492188 -1.96875 0.515625 -2.5 C 0.535156 -3.039062 0.648438 -3.5 0.859375 -3.875 C 1.066406 -4.25 1.34375 -4.535156 1.6875 -4.734375 C 2.03125 -4.929688 2.414062 -5.019531 2.84375 -5 C 3.269531 -4.976562 3.648438 -4.859375 3.984375 -4.640625 C 4.316406 -4.421875 4.570312 -4.113281 4.75 -3.71875 C 4.925781 -3.320312 5.003906 -2.851562 4.984375 -2.3125 Z M 4.390625 -2.34375 C 4.398438 -2.78125 4.335938 -3.148438 4.203125 -3.453125 C 4.078125 -3.765625 3.890625 -4.003906 3.640625 -4.171875 C 3.398438 -4.335938 3.128906 -4.425781 2.828125 -4.4375 C 2.523438 -4.445312 2.242188 -4.378906 1.984375 -4.234375 C 1.734375 -4.085938 1.523438 -3.863281 1.359375 -3.5625 C 1.203125 -3.269531 1.117188 -2.90625 1.109375 -2.46875 C 1.085938 -2.039062 1.144531 -1.671875 1.28125 -1.359375 C 1.414062 -1.054688 1.601562 -0.820312 1.84375 -0.65625 C 2.082031 -0.488281 2.351562 -0.398438 2.65625 -0.390625 C 2.957031 -0.378906 3.238281 -0.445312 3.5 -0.59375 C 3.757812 -0.738281 3.96875 -0.957031 4.125 -1.25 C 4.28125 -1.550781 4.367188 -1.914062 4.390625 -2.34375 Z M 4.390625 -2.34375 "/></g></g></g><g fill="#000000" fill-opacity="1"><g transform="translate(24.350032, 50.004397)"><g><path d="M 4.28125 -3.9375 L 3.6875 -3.875 C 3.613281 -4.101562 3.492188 -4.285156 3.328125 -4.421875 C 3.171875 -4.566406 2.988281 -4.671875 2.78125 -4.734375 C 2.582031 -4.796875 2.375 -4.816406 2.15625 -4.796875 C 1.851562 -4.765625 1.582031 -4.660156 1.34375 -4.484375 C 1.113281 -4.304688 0.941406 -4.054688 0.828125 -3.734375 C 0.722656 -3.421875 0.691406 -3.046875 0.734375 -2.609375 C 0.773438 -2.179688 0.882812 -1.828125 1.0625 -1.546875 C 1.238281 -1.265625 1.457031 -1.054688 1.71875 -0.921875 C 1.988281 -0.796875 2.273438 -0.75 2.578125 -0.78125 C 2.796875 -0.800781 3 -0.863281 3.1875 -0.96875 C 3.375 -1.070312 3.53125 -1.210938 3.65625 -1.390625 C 3.78125 -1.566406 3.851562 -1.765625 3.875 -1.984375 L 4.46875 -2.046875 C 4.445312 -1.710938 4.351562 -1.410156 4.1875 -1.140625 C 4.03125 -0.878906 3.816406 -0.664062 3.546875 -0.5 C 3.273438 -0.34375 2.96875 -0.25 2.625 -0.21875 C 2.195312 -0.164062 1.804688 -0.226562 1.453125 -0.40625 C 1.097656 -0.582031 0.804688 -0.847656 0.578125 -1.203125 C 0.347656 -1.566406 0.203125 -2.015625 0.140625 -2.546875 C 0.0859375 -3.085938 0.132812 -3.554688 0.28125 -3.953125 C 0.4375 -4.359375 0.671875 -4.679688 0.984375 -4.921875 C 1.296875 -5.160156 1.664062 -5.304688 2.09375 -5.359375 C 2.4375 -5.390625 2.753906 -5.351562 3.046875 -5.25 C 3.335938 -5.15625 3.585938 -5 3.796875 -4.78125 C 4.015625 -4.5625 4.175781 -4.28125 4.28125 -3.9375 Z M 4.28125 -3.9375 "/></g></g></g><g fill="#000000" fill-opacity="1"><g transform="translate(29.685284, 49.424396)"><g><path d="M 0.59375 -0.15625 L -0.640625 -5.046875 L -0.046875 -5.1875 L 0.5 -3.015625 L 3.09375 -3.671875 L 2.546875 -5.84375 L 3.140625 -6 L 4.375 -1.109375 L 3.78125 -0.953125 L 3.234375 -3.140625 L 0.640625 -2.484375 L 1.1875 -0.296875 Z M 0.59375 -0.15625 "/></g></g></g><g fill="#000000" fill-opacity="1"><g transform="translate(34.929627, 48.041896)"><g><path d="M 0.5625 -0.21875 L -1.3125 -4.90625 L 1.515625 -6.046875 L 1.71875 -5.546875 L -0.546875 -4.640625 L 0.09375 -3.046875 L 2.21875 -3.890625 L 2.421875 -3.390625 L 0.296875 -2.546875 L 0.921875 -0.96875 L 3.234375 -1.890625 L 3.4375 -1.375 Z M 0.5625 -0.21875 "/></g></g></g><g fill="#000000" fill-opacity="1"><g transform="translate(39.03165, 46.39926)"><g><path d="M -1.875 -4.109375 L -2.140625 -4.578125 L 1.203125 -6.40625 L 1.46875 -5.9375 L 0.0625 -5.171875 L 2.21875 -1.21875 L 1.6875 -0.921875 L -0.46875 -4.875 Z M -1.875 -4.109375 "/></g></g></g></svg>