<svg xmlns="http://www.w3.org/2000/svg" xmlns:xlink="http://www.w3.org/1999/xlink" width="100" zoomAndPan="magnify" viewBox="0 0 75 74.999997" height="100" preserveAspectRatio="xMidYMid meet" version="1.0"><defs><clipPath id="a601310a46"><path d="M 0 0 L 73.5 0 L 73.5 75 L 0 75 Z M 0 0 " clip-rule="nonzero"/></clipPath></defs><g clip-path="url(#a601310a46)"><path fill="#ffffff" d="M 72.40625 70 L 67.386719 64.667969 L 64.222656 61.308594 C 64.222656 61.304688 64.21875 61.304688 64.21875 61.304688 L 62.570312 59.550781 C 65.90625 55.535156 68.230469 50.910156 69.464844 45.785156 C 69.820312 44.308594 70.066406 42.824219 70.222656 41.339844 C 70.222656 41.335938 70.226562 41.332031 70.230469 41.324219 C 70.234375 41.308594 70.226562 41.289062 70.230469 41.273438 C 70.613281 37.597656 70.398438 33.914062 69.570312 30.269531 C 69.621094 29.15625 69.957031 16.574219 59.707031 8.464844 C 49.109375 0.0820312 37.496094 1.207031 36.9375 1.269531 C 35.226562 1.035156 33.617188 0.941406 32.167969 0.992188 C 24.058594 1.292969 18.085938 4.644531 15.941406 10.019531 L 14.058594 8.023438 C 13.867188 7.816406 9.308594 3.015625 5.71875 5.609375 C 3.171875 7.453125 2.785156 10.632812 4.664062 14.332031 C 4.910156 14.820312 5.363281 15.160156 5.902344 15.261719 C 6.449219 15.367188 7.003906 15.214844 7.417969 14.847656 C 7.980469 14.351562 8.171875 13.554688 7.894531 12.863281 C 7.769531 12.550781 7.398438 11.507812 7.820312 11.164062 C 8.355469 10.730469 9.457031 11.632812 9.710938 11.886719 L 11.851562 14.160156 C 10.554688 15.5 9.371094 16.941406 8.320312 18.472656 C 8.308594 18.484375 8.300781 18.496094 8.292969 18.507812 C 5.941406 21.929688 4.222656 25.765625 3.238281 29.851562 C 3.0625 30.59375 2.90625 31.34375 2.777344 32.09375 C 1.835938 33.976562 1.015625 35.863281 0.34375 37.730469 C 0.00390625 38.667969 0.480469 39.710938 1.441406 40.066406 L 1.59375 40.113281 C 1.730469 40.144531 1.867188 40.160156 2.003906 40.160156 C 2.128906 40.160156 2.253906 40.140625 2.378906 40.117188 C 2.394531 40.382812 2.410156 40.648438 2.433594 40.914062 C 1.914062 41.398438 0.808594 42.65625 1.359375 44.125 C 1.5625 44.671875 1.894531 45.011719 2.253906 45.214844 C 1.804688 45.757812 1.511719 46.480469 1.808594 47.316406 C 2.054688 48.015625 2.460938 48.488281 3.015625 48.714844 C 3.039062 48.722656 3.0625 48.726562 3.085938 48.734375 C 2.75 49.296875 2.597656 49.984375 2.992188 50.703125 C 3.382812 51.402344 3.894531 51.65625 4.253906 51.746094 C 4.402344 51.78125 4.546875 51.796875 4.683594 51.796875 C 4.898438 51.796875 5.09375 51.757812 5.261719 51.710938 C 6.835938 55.226562 8.964844 58.417969 11.609375 61.21875 C 11.253906 62 11.078125 63.222656 12.167969 64.066406 C 12.601562 64.402344 13.035156 64.527344 13.441406 64.527344 C 13.933594 64.527344 14.378906 64.34375 14.71875 64.121094 C 16.257812 65.390625 17.914062 66.53125 19.652344 67.507812 C 20.027344 68.199219 21.472656 70.667969 23.164062 71.074219 C 23.347656 71.117188 23.523438 71.140625 23.695312 71.140625 C 24.28125 71.140625 24.792969 70.890625 25.175781 70.410156 C 25.269531 70.292969 25.34375 70.175781 25.40625 70.058594 C 26.382812 70.390625 27.378906 70.6875 28.386719 70.929688 C 30.765625 71.503906 33.199219 71.808594 35.625 71.863281 C 35.6875 72.316406 35.90625 72.71875 36.253906 73.007812 C 36.460938 73.179688 36.699219 73.300781 36.960938 73.363281 C 37.097656 73.394531 37.230469 73.410156 37.367188 73.410156 C 37.90625 73.410156 38.429688 73.160156 38.777344 72.71875 C 39.03125 72.394531 39.273438 72.0625 39.523438 71.730469 C 46.460938 71.082031 53.164062 68.238281 58.488281 63.695312 L 68.171875 73.984375 C 68.742188 74.589844 69.515625 74.898438 70.289062 74.898438 C 71.003906 74.898438 71.71875 74.636719 72.28125 74.109375 C 72.847656 73.574219 73.171875 72.855469 73.195312 72.078125 C 73.21875 71.304688 72.9375 70.566406 72.40625 70 Z M 64.535156 68.410156 C 65.636719 67.828125 66.492188 67.042969 67.089844 66.066406 L 67.71875 66.734375 C 67.273438 67.707031 66.433594 68.476562 65.164062 69.074219 Z M 62.9375 66.710938 C 64.03125 66.183594 64.878906 65.390625 65.476562 64.351562 L 66.253906 65.175781 C 65.714844 66.195312 64.871094 66.964844 63.695312 67.515625 Z M 61.449219 65.132812 C 62.5 64.570312 63.332031 63.761719 63.9375 62.71875 L 64.625 63.449219 C 64.085938 64.5625 63.25 65.339844 62.085938 65.808594 Z M 46.953125 49.734375 L 42.988281 45.519531 C 42.988281 45.519531 42.988281 45.519531 42.984375 45.519531 L 39.8125 42.148438 C 41.242188 41.972656 42.679688 41.816406 44.128906 41.671875 L 46.648438 44.351562 C 46.648438 44.351562 46.648438 44.351562 46.652344 44.355469 L 48.550781 46.371094 C 48.601562 46.480469 48.683594 46.5625 48.789062 46.625 L 50.5625 48.507812 C 50.5625 48.507812 50.5625 48.507812 50.5625 48.511719 L 63.09375 61.820312 C 62.535156 62.933594 61.714844 63.730469 60.613281 64.242188 Z M 50.4375 55.148438 C 49.226562 59.011719 47.003906 62.457031 43.804688 65.4375 C 45.96875 61.867188 47.851562 58.074219 49.449219 54.09375 Z M 50.046875 59.191406 C 51.074219 58.832031 52.101562 58.425781 53.105469 57.980469 L 53.792969 58.710938 C 52.308594 59.621094 50.414062 60.699219 48.65625 61.566406 C 49.167969 60.796875 49.632812 60.003906 50.046875 59.191406 Z M 50.753906 57.675781 C 50.972656 57.167969 51.175781 56.648438 51.355469 56.125 L 52.25 57.070312 C 51.753906 57.28125 51.257812 57.484375 50.753906 57.675781 Z M 41.730469 68.667969 C 43.871094 67.101562 45.703125 65.375 47.226562 63.503906 C 48.859375 62.832031 50.859375 61.78125 52.636719 60.757812 C 49.703125 64.542969 45.914062 67.464844 40.964844 69.769531 C 41.222656 69.40625 41.480469 69.039062 41.730469 68.667969 Z M 44.703125 56.132812 C 42.382812 56.859375 40.003906 57.292969 37.632812 57.410156 C 37.308594 57.425781 37.0625 57.699219 37.078125 58.023438 C 37.089844 58.335938 37.351562 58.582031 37.660156 58.582031 C 37.671875 58.582031 37.679688 58.582031 37.691406 58.582031 C 39.8125 58.480469 41.933594 58.121094 44.023438 57.550781 C 43.652344 58.308594 43.273438 59.0625 42.878906 59.808594 C 36.113281 60.910156 28.875 60.289062 21.34375 57.960938 C 21.214844 57.433594 21.09375 56.890625 20.976562 56.335938 C 23.699219 56.667969 26.363281 56.84375 28.957031 56.84375 C 34.824219 56.84375 40.355469 55.988281 45.5 54.304688 C 45.238281 54.914062 44.980469 55.53125 44.703125 56.132812 Z M 46.097656 52.871094 C 38.652344 55.488281 30.328125 56.269531 21.339844 55.203125 C 22.148438 54.128906 22.957031 53.074219 23.769531 52.035156 C 24.710938 52.078125 25.640625 52.101562 26.554688 52.101562 C 33.070312 52.101562 38.839844 51.035156 44.484375 48.820312 L 45.507812 49.910156 C 41.402344 51.464844 36.988281 52.496094 32.042969 53.046875 C 31.71875 53.082031 31.488281 53.371094 31.523438 53.695312 C 31.558594 53.996094 31.8125 54.21875 32.105469 54.21875 C 32.128906 54.21875 32.148438 54.214844 32.171875 54.214844 C 37.402344 53.632812 42.050781 52.523438 46.378906 50.835938 L 46.742188 51.222656 C 46.535156 51.777344 46.316406 52.324219 46.097656 52.871094 Z M 48.8125 25.699219 C 49.050781 26.609375 49.261719 27.554688 49.445312 28.523438 C 49.105469 28.527344 48.761719 28.523438 48.421875 28.527344 C 48.277344 27.808594 48.125 27.101562 47.957031 26.414062 C 48.242188 26.171875 48.527344 25.9375 48.8125 25.699219 Z M 61.734375 20.777344 C 59.464844 20.699219 57.214844 20.703125 55.011719 20.792969 C 56.289062 19.839844 57.574219 18.910156 58.871094 18.015625 C 59.921875 18.941406 60.878906 19.867188 61.734375 20.777344 Z M 67.28125 40.136719 C 67.273438 40.136719 67.265625 40.132812 67.253906 40.132812 C 65.773438 39.851562 64.304688 39.601562 62.851562 39.382812 C 62.835938 39.378906 62.820312 39.375 62.808594 39.375 C 59.785156 38.914062 56.824219 38.582031 53.949219 38.375 C 54.046875 37.8125 54.140625 37.246094 54.230469 36.679688 C 55.773438 36.785156 57.351562 36.925781 58.929688 37.101562 C 58.949219 37.101562 58.972656 37.101562 58.992188 37.101562 C 59.289062 37.101562 59.542969 36.882812 59.574219 36.582031 C 59.613281 36.257812 59.378906 35.96875 59.058594 35.933594 C 57.492188 35.757812 55.933594 35.621094 54.398438 35.515625 C 54.480469 34.914062 54.558594 34.316406 54.625 33.71875 C 61.03125 33.917969 65.605469 34.425781 65.652344 34.429688 C 65.675781 34.433594 65.695312 34.433594 65.71875 34.433594 C 66.011719 34.433594 66.265625 34.214844 66.300781 33.914062 C 66.335938 33.59375 66.105469 33.300781 65.78125 33.265625 C 65.734375 33.261719 61.164062 32.753906 54.753906 32.546875 C 54.84375 31.613281 54.914062 30.683594 54.96875 29.753906 C 61.960938 29.972656 67.0625 30.632812 68.484375 30.835938 C 69.183594 34.039062 69.394531 37.269531 69.121094 40.5 C 68.507812 40.375 67.894531 40.253906 67.28125 40.136719 Z M 53.222656 49.625 L 51.933594 48.253906 C 55.53125 46.308594 59.058594 43.851562 62.941406 40.582031 C 63.292969 40.632812 63.648438 40.691406 64.003906 40.75 C 60.925781 44.3125 57.308594 47.292969 53.222656 49.625 Z M 54.046875 50.5 C 55.710938 49.535156 57.300781 48.46875 58.808594 47.296875 C 58.273438 49.496094 57.609375 51.554688 56.824219 53.449219 Z M 65.734375 25.757812 C 66.847656 27.394531 67.582031 28.746094 67.996094 29.585938 C 65.976562 29.320312 61.238281 28.777344 55.03125 28.582031 C 55.066406 27.804688 55.089844 27.03125 55.097656 26.257812 C 58.671875 25.546875 62.246094 25.378906 65.734375 25.757812 Z M 53.738281 39.535156 C 55.050781 39.628906 56.382812 39.746094 57.730469 39.894531 C 56.121094 41.097656 54.519531 42.203125 52.945312 43.195312 C 53.238281 41.980469 53.503906 40.757812 53.738281 39.535156 Z M 52.53125 44.832031 C 54.785156 43.472656 57.101562 41.882812 59.421875 40.089844 C 60.070312 40.167969 60.726562 40.253906 61.382812 40.347656 C 58.078125 43.070312 55.027344 45.195312 51.945312 46.914062 C 52.148438 46.222656 52.347656 45.527344 52.53125 44.832031 Z M 55.101562 25.066406 C 55.09375 24.027344 55.070312 22.992188 55.015625 21.96875 C 57.574219 21.863281 60.195312 21.871094 62.828125 21.992188 C 63.582031 22.859375 64.25 23.699219 64.839844 24.492188 C 61.632812 24.242188 58.367188 24.4375 55.101562 25.066406 Z M 53.824219 21.679688 C 54.285156 29.890625 53.214844 38.582031 50.707031 46.953125 L 49.738281 45.921875 C 50.058594 44.820312 50.347656 43.707031 50.617188 42.59375 C 50.636719 42.546875 50.644531 42.5 50.652344 42.449219 C 50.78125 41.894531 50.914062 41.339844 51.035156 40.78125 C 51.046875 40.75 51.050781 40.714844 51.058594 40.679688 C 51.175781 40.136719 51.277344 39.589844 51.378906 39.042969 C 51.414062 38.972656 51.433594 38.894531 51.4375 38.808594 C 51.4375 38.796875 51.433594 38.785156 51.429688 38.769531 C 51.597656 37.894531 51.746094 37.019531 51.875 36.140625 C 51.902344 36.082031 51.921875 36.019531 51.921875 35.949219 C 51.925781 35.929688 51.914062 35.910156 51.914062 35.890625 C 52.042969 35 52.160156 34.113281 52.257812 33.226562 C 52.273438 33.175781 52.292969 33.125 52.292969 33.070312 C 52.292969 33.046875 52.285156 33.027344 52.28125 33.007812 C 52.417969 31.742188 52.519531 30.480469 52.589844 29.226562 C 52.597656 29.1875 52.613281 29.152344 52.613281 29.109375 C 52.613281 29.085938 52.601562 29.066406 52.601562 29.042969 C 52.644531 28.183594 52.671875 27.332031 52.683594 26.480469 C 52.695312 26.417969 52.695312 26.351562 52.6875 26.28125 C 52.699219 25.046875 52.691406 23.816406 52.636719 22.601562 C 53.03125 22.292969 53.425781 21.984375 53.824219 21.679688 Z M 48.046875 44.125 C 48.421875 43.933594 48.792969 43.742188 49.175781 43.539062 C 49.054688 44 48.925781 44.460938 48.796875 44.921875 Z M 50.636719 28.519531 C 50.574219 28.171875 50.507812 27.824219 50.433594 27.484375 C 50.789062 27.367188 51.144531 27.257812 51.496094 27.152344 C 51.488281 27.609375 51.476562 28.0625 51.457031 28.519531 C 51.183594 28.515625 50.914062 28.519531 50.636719 28.519531 Z M 49.550781 42 C 48.761719 42.4375 47.976562 42.847656 47.207031 43.234375 L 45.605469 41.53125 C 46.976562 41.40625 48.351562 41.300781 49.734375 41.207031 C 49.671875 41.472656 49.613281 41.738281 49.550781 42 Z M 51.488281 23.507812 C 51.511719 24.308594 51.527344 25.113281 51.519531 25.921875 C 51.078125 26.050781 50.628906 26.1875 50.179688 26.332031 C 50.0625 25.835938 49.9375 25.351562 49.804688 24.871094 C 50.363281 24.410156 50.925781 23.957031 51.488281 23.507812 Z M 46.953125 27.28125 C 47.050781 27.699219 47.140625 28.121094 47.226562 28.550781 C 46.628906 28.5625 46.039062 28.585938 45.449219 28.609375 C 45.949219 28.160156 46.453125 27.71875 46.953125 27.28125 Z M 44.105469 29.824219 C 46.488281 29.71875 48.933594 29.675781 51.386719 29.691406 C 51.328125 30.617188 51.253906 31.542969 51.15625 32.472656 C 47.613281 32.4375 44.21875 32.519531 41.027344 32.71875 C 42.050781 31.730469 43.074219 30.765625 44.105469 29.824219 Z M 39.734375 33.972656 C 43.25 33.714844 47.050781 33.605469 51.035156 33.648438 C 50.96875 34.203125 50.890625 34.761719 50.8125 35.320312 C 46.421875 35.164062 42.128906 35.289062 38.019531 35.703125 C 38.589844 35.121094 39.160156 34.542969 39.734375 33.972656 Z M 36.722656 37.027344 C 41.164062 36.5 45.84375 36.324219 50.640625 36.488281 C 50.550781 37.054688 50.453125 37.621094 50.347656 38.1875 C 44.996094 38 39.800781 38.269531 34.871094 38.992188 C 35.484375 38.332031 36.101562 37.667969 36.722656 37.027344 Z M 33.582031 40.378906 C 38.816406 39.507812 44.375 39.164062 50.128906 39.351562 C 50.085938 39.570312 50.050781 39.792969 50.003906 40.011719 C 45.390625 40.316406 40.820312 40.789062 36.347656 41.421875 C 36.332031 41.425781 36.316406 41.425781 36.296875 41.429688 C 35.453125 41.550781 34.609375 41.675781 33.773438 41.808594 C 33.761719 41.8125 33.75 41.8125 33.734375 41.816406 C 33.171875 41.902344 32.609375 41.996094 32.050781 42.089844 C 32.5625 41.515625 33.070312 40.941406 33.582031 40.378906 Z M 35.222656 42.769531 C 34.59375 43.808594 34.148438 44.785156 33.824219 45.828125 C 33.726562 46.136719 33.898438 46.464844 34.207031 46.5625 C 34.265625 46.582031 34.324219 46.589844 34.382812 46.589844 C 34.632812 46.589844 34.863281 46.429688 34.941406 46.175781 C 35.324219 44.960938 35.894531 43.832031 36.761719 42.550781 C 37.296875 42.472656 37.832031 42.398438 38.371094 42.328125 L 41.515625 45.667969 C 38.1875 46.855469 34.972656 47.558594 31.808594 47.773438 C 32.316406 46.050781 33.101562 44.457031 34.179688 42.933594 C 34.527344 42.878906 34.875 42.824219 35.222656 42.769531 Z M 30.808594 43.492188 C 31.402344 43.386719 32.003906 43.285156 32.605469 43.183594 C 31.695312 44.648438 31.023438 46.183594 30.578125 47.828125 C 29.453125 47.863281 28.332031 47.828125 27.214844 47.738281 C 28.40625 46.292969 29.605469 44.871094 30.808594 43.492188 Z M 26.308594 48.84375 C 27.4375 48.960938 28.5625 49.027344 29.695312 49.027344 C 30.128906 49.027344 30.566406 49.015625 31.003906 48.996094 C 31.011719 48.996094 31.019531 49 31.027344 49 C 31.039062 49 31.046875 48.996094 31.054688 48.996094 C 34.75 48.839844 38.5 48.046875 42.398438 46.605469 L 43.617188 47.902344 C 37.71875 50.148438 31.644531 51.109375 24.667969 50.894531 C 25.214844 50.203125 25.761719 49.515625 26.308594 48.84375 Z M 61.757812 58.691406 L 57.707031 54.386719 C 58.785156 51.886719 59.65625 49.101562 60.296875 46.089844 C 60.972656 45.511719 61.632812 44.90625 62.273438 44.285156 C 61.804688 47.484375 61.015625 50.460938 59.925781 53.152344 C 59.804688 53.453125 59.949219 53.792969 60.25 53.917969 C 60.320312 53.945312 60.394531 53.960938 60.46875 53.960938 C 60.699219 53.960938 60.921875 53.820312 61.011719 53.59375 C 62.316406 50.386719 63.199219 46.789062 63.640625 42.902344 C 63.96875 42.558594 64.289062 42.207031 64.605469 41.847656 C 64.589844 43.824219 64.191406 46.246094 63.398438 49.089844 C 63.3125 49.402344 63.496094 49.722656 63.808594 49.8125 C 63.859375 49.828125 63.914062 49.832031 63.964844 49.832031 C 64.222656 49.832031 64.457031 49.664062 64.53125 49.402344 C 65.457031 46.082031 65.871094 43.28125 65.769531 41.050781 C 66.042969 41.101562 66.316406 41.152344 66.589844 41.203125 C 66.785156 43.054688 66.523438 45.203125 65.792969 47.609375 C 65.699219 47.917969 65.875 48.246094 66.183594 48.339844 C 66.242188 48.359375 66.300781 48.367188 66.355469 48.367188 C 66.605469 48.367188 66.839844 48.203125 66.917969 47.949219 C 67.644531 45.542969 67.941406 43.355469 67.796875 41.429688 C 68.203125 41.511719 68.609375 41.59375 69.015625 41.675781 C 68.859375 42.957031 68.632812 44.234375 68.324219 45.511719 C 67.144531 50.414062 64.929688 54.839844 61.757812 58.691406 Z M 58.976562 9.382812 C 63.925781 13.300781 66.289062 18.3125 67.410156 22.445312 C 62.898438 12.117188 52.707031 5.625 43.417969 2.738281 C 47.691406 3.375 53.523438 5.070312 58.976562 9.382812 Z M 32.210938 2.164062 C 42.082031 1.785156 59.417969 8.238281 65.988281 22.125 C 62.875 17.042969 58.335938 12.730469 52.40625 9.257812 C 52.125 9.09375 51.769531 9.1875 51.601562 9.464844 C 51.441406 9.746094 51.535156 10.105469 51.8125 10.269531 C 57.628906 13.675781 62.0625 17.902344 65.082031 22.886719 C 64.648438 22.332031 64.179688 21.765625 63.671875 21.183594 C 63.628906 21.082031 63.550781 21 63.460938 20.9375 C 62.308594 19.636719 60.960938 18.285156 59.417969 16.945312 C 59.414062 16.941406 59.414062 16.933594 59.410156 16.925781 C 59.351562 16.839844 59.269531 16.78125 59.179688 16.738281 C 58.488281 16.148438 57.757812 15.5625 56.984375 14.984375 C 56.929688 14.921875 56.867188 14.871094 56.792969 14.839844 C 55.839844 14.132812 54.828125 13.445312 53.75 12.777344 C 53.699219 12.734375 53.648438 12.703125 53.589844 12.679688 C 52.734375 12.15625 51.839844 11.648438 50.898438 11.15625 C 50.863281 11.132812 50.824219 11.113281 50.785156 11.097656 C 49.417969 10.390625 47.96875 9.722656 46.421875 9.113281 C 46.410156 9.109375 46.402344 9.105469 46.390625 9.101562 C 46.105469 8.988281 45.8125 8.878906 45.523438 8.773438 C 45.5 8.765625 45.480469 8.753906 45.457031 8.75 C 45.273438 8.679688 45.097656 8.605469 44.910156 8.542969 C 32.890625 4.261719 24.445312 6.234375 19.84375 8.277344 C 23.066406 5.894531 27.40625 4.570312 32.824219 4.335938 C 33.148438 4.320312 33.398438 4.046875 33.386719 3.722656 C 33.371094 3.398438 33.09375 3.152344 32.773438 3.164062 C 26.789062 3.421875 22.035156 4.96875 18.574219 7.769531 C 21.222656 4.394531 25.980469 2.394531 32.210938 2.164062 Z M 42.734375 25.242188 C 42.367188 24.746094 42.015625 24.230469 41.671875 23.695312 C 42.898438 23.414062 44.15625 23.164062 45.441406 22.945312 C 44.535156 23.695312 43.632812 24.460938 42.734375 25.242188 Z M 9.957031 57.429688 C 9.3125 55.09375 8.988281 52.40625 8.988281 49.4375 C 9.585938 49.074219 10.191406 48.722656 10.796875 48.378906 C 10.617188 52.152344 10.792969 55.816406 11.351562 59.175781 C 10.867188 58.605469 10.398438 58.027344 9.957031 57.429688 Z M 7.820312 50.167969 C 7.847656 51.804688 7.972656 53.359375 8.199219 54.816406 C 7.492188 53.644531 6.863281 52.421875 6.300781 51.160156 C 6.800781 50.820312 7.308594 50.492188 7.820312 50.167969 Z M 6.597656 35.5 C 6.277344 35.441406 5.972656 35.652344 5.910156 35.96875 C 5.742188 36.882812 5.621094 37.789062 5.539062 38.675781 C 4.675781 39.21875 4.015625 39.675781 3.546875 40.023438 C 3.53125 39.792969 3.507812 39.566406 3.5 39.339844 C 3.578125 39.21875 3.648438 39.089844 3.699219 38.949219 C 4.394531 37.023438 5.257812 35.074219 6.261719 33.128906 C 7.21875 32.117188 8.257812 31.160156 9.367188 30.246094 C 8.601562 32.523438 8 34.945312 7.574219 37.480469 C 7.304688 37.628906 7.046875 37.773438 6.800781 37.917969 C 6.875 37.34375 6.957031 36.765625 7.066406 36.183594 C 7.125 35.867188 6.914062 35.558594 6.597656 35.5 Z M 18.222656 20.925781 C 16.054688 21.804688 13.960938 22.886719 11.957031 24.160156 C 13.320312 22.367188 14.792969 20.621094 16.359375 18.945312 Z M 9.90625 27.007812 C 12.394531 25.121094 15.066406 23.558594 17.867188 22.347656 C 17.5625 22.890625 17.265625 23.445312 16.980469 24.003906 C 14.554688 25.191406 12.320312 26.542969 10.285156 28.039062 C 10.25 28.0625 10.214844 28.085938 10.183594 28.117188 C 9.488281 28.632812 8.816406 29.164062 8.167969 29.714844 C 8.71875 28.808594 9.300781 27.90625 9.90625 27.007812 Z M 11.097656 28.898438 C 12.152344 28.125 13.261719 27.390625 14.433594 26.703125 C 12.554688 29.152344 10.949219 32.449219 9.773438 36.335938 C 9.46875 36.484375 9.179688 36.632812 8.898438 36.777344 C 9.421875 33.984375 10.152344 31.335938 11.097656 28.898438 Z M 15.464844 27.285156 C 15.445312 27.328125 15.425781 27.371094 15.40625 27.417969 C 14.410156 29.804688 13.574219 32.332031 12.886719 34.917969 C 12.304688 35.164062 11.753906 35.40625 11.222656 35.648438 C 12.34375 32.269531 13.800781 29.414062 15.464844 27.285156 Z M 12.632812 59.660156 C 11.933594 55.875 11.738281 51.65625 12.023438 47.316406 C 12.023438 47.304688 12.027344 47.292969 12.027344 47.28125 C 12.464844 40.703125 13.988281 33.863281 16.488281 27.871094 C 17.324219 25.863281 18.292969 23.9375 19.351562 22.125 L 19.820312 22.621094 C 14.222656 32.714844 12.171875 44.636719 13.734375 58.078125 C 13.367188 58.601562 13 59.128906 12.632812 59.660156 Z M 14.765625 56.621094 C 13.527344 44.117188 15.511719 32.992188 20.667969 23.523438 L 21.136719 24.023438 C 16.546875 32.953125 14.632812 44.449219 16 54.921875 C 15.585938 55.488281 15.175781 56.046875 14.765625 56.621094 Z M 17.019531 53.515625 C 16 43.761719 17.828125 33.25 21.996094 24.933594 L 23.84375 26.898438 C 23.167969 28.207031 22.53125 29.589844 21.949219 31.011719 C 20.726562 34.007812 19.863281 37.101562 19.359375 40.273438 C 19.359375 40.277344 19.355469 40.28125 19.355469 40.285156 C 19.183594 41.367188 19.050781 42.460938 18.964844 43.558594 C 18.964844 43.5625 18.960938 43.566406 18.960938 43.570312 C 18.878906 44.632812 18.832031 45.707031 18.828125 46.785156 C 18.828125 46.792969 18.824219 46.796875 18.824219 46.800781 C 18.824219 46.804688 18.828125 46.804688 18.828125 46.808594 C 18.820312 48.164062 18.875 49.53125 18.992188 50.90625 C 18.332031 51.769531 17.671875 52.632812 17.019531 53.515625 Z M 27.308594 30.578125 C 26.363281 30.769531 25.425781 30.964844 24.503906 31.183594 C 25.164062 30.695312 25.851562 30.226562 26.554688 29.777344 Z M 23.445312 30.515625 C 23.847656 29.589844 24.265625 28.6875 24.707031 27.8125 L 25.738281 28.910156 C 24.949219 29.421875 24.183594 29.957031 23.445312 30.515625 Z M 20.066406 49.503906 C 20.03125 48.847656 20.007812 48.199219 20.003906 47.546875 C 20.441406 47.679688 20.878906 47.804688 21.316406 47.921875 C 20.898438 48.445312 20.484375 48.96875 20.066406 49.503906 Z M 22.109375 46.914062 C 21.742188 46.824219 21.378906 46.734375 21.007812 46.628906 C 21.660156 46.328125 22.339844 46.046875 23.042969 45.773438 C 22.730469 46.152344 22.417969 46.527344 22.109375 46.914062 Z M 24.511719 43.988281 C 22.90625 44.527344 21.402344 45.140625 20.015625 45.804688 C 20.03125 45.203125 20.066406 44.601562 20.109375 44.003906 C 22.085938 43.25 24.121094 42.582031 26.191406 42.011719 C 25.628906 42.664062 25.066406 43.320312 24.511719 43.988281 Z M 27.542969 40.4375 C 25.054688 41.0625 22.597656 41.828125 20.222656 42.710938 C 20.289062 42.054688 20.371094 41.402344 20.46875 40.753906 C 22.648438 39.984375 24.910156 39.308594 27.191406 38.746094 C 27.964844 38.554688 28.753906 38.375 29.542969 38.207031 C 28.875 38.945312 28.207031 39.683594 27.542969 40.4375 Z M 30.890625 36.738281 C 29.550781 36.996094 28.214844 37.285156 26.910156 37.605469 C 24.804688 38.125 22.71875 38.742188 20.691406 39.4375 C 20.808594 38.8125 20.9375 38.191406 21.082031 37.574219 C 24.15625 36.542969 27.125 35.742188 29.914062 35.210938 C 30.835938 35.035156 31.796875 34.875 32.785156 34.730469 C 32.152344 35.390625 31.519531 36.0625 30.890625 36.738281 Z M 34.125 33.355469 C 32.585938 33.558594 31.097656 33.792969 29.695312 34.058594 C 27.070312 34.558594 24.289062 35.296875 21.421875 36.234375 C 21.722656 35.109375 22.078125 33.996094 22.484375 32.898438 C 25.410156 32.117188 28.488281 31.480469 31.652344 31.007812 C 32.472656 30.882812 33.289062 30.773438 34.101562 30.667969 C 35.117188 30.539062 36.152344 30.425781 37.191406 30.324219 C 36.164062 31.3125 35.144531 32.324219 34.125 33.355469 Z M 22.667969 8.519531 C 21.113281 9.667969 19.574219 10.917969 18.066406 12.277344 L 17.042969 11.191406 C 17.882812 10.605469 19.78125 9.4375 22.667969 8.519531 Z M 25.863281 7.714844 C 26.824219 7.535156 27.851562 7.394531 28.957031 7.308594 C 27.308594 8.242188 25.648438 9.320312 24 10.53125 C 23.980469 10.542969 23.960938 10.558594 23.941406 10.574219 C 22.558594 11.597656 21.1875 12.714844 19.84375 13.90625 C 19.824219 13.921875 19.808594 13.9375 19.789062 13.953125 C 19.765625 13.976562 19.738281 14 19.710938 14.023438 L 18.871094 13.132812 C 21.152344 11.082031 23.5 9.257812 25.863281 7.714844 Z M 25.136719 12.785156 C 24.238281 12.910156 23.328125 13.070312 22.410156 13.257812 C 23.117188 12.679688 23.824219 12.121094 24.539062 11.589844 C 25.3125 11.453125 26.101562 11.328125 26.898438 11.214844 C 26.300781 11.707031 25.714844 12.230469 25.136719 12.785156 Z M 28.773438 9.78125 C 28.085938 9.863281 27.40625 9.957031 26.734375 10.050781 C 28.371094 8.960938 30.011719 8.007812 31.625 7.21875 C 32.128906 7.222656 32.648438 7.242188 33.179688 7.269531 C 31.671875 7.941406 30.199219 8.78125 28.773438 9.78125 Z M 23.738281 14.199219 C 23.105469 14.875 22.492188 15.59375 21.890625 16.339844 L 20.535156 14.898438 C 21.605469 14.621094 22.675781 14.390625 23.738281 14.199219 Z M 35.800781 7.511719 C 36.789062 7.640625 37.808594 7.816406 38.867188 8.039062 C 35.683594 9.226562 29.417969 12.257812 24.332031 18.933594 L 22.703125 17.203125 C 26.507812 12.414062 31.023438 9.066406 35.800781 7.511719 Z M 41.046875 8.5625 C 41.746094 8.75 42.460938 8.964844 43.1875 9.199219 C 39.824219 10.191406 32.945312 13.167969 26.957031 21.722656 L 25.148438 19.800781 C 31.425781 11.460938 39.847656 8.890625 41.046875 8.5625 Z M 50.054688 12.039062 C 50.484375 13.917969 50.820312 15.859375 51.0625 17.832031 C 50.390625 17.851562 49.71875 17.886719 49.054688 17.929688 C 48.765625 15.253906 48.195312 12.855469 47.351562 10.765625 C 48.289062 11.171875 49.1875 11.597656 50.054688 12.039062 Z M 47.882812 18.015625 C 47.648438 18.035156 47.410156 18.054688 47.175781 18.078125 C 45.863281 15.511719 44.230469 13.117188 42.214844 10.789062 C 43.761719 10.210938 44.859375 9.984375 45.242188 9.917969 C 45.425781 9.988281 45.609375 10.054688 45.789062 10.125 C 46.851562 12.335938 47.554688 14.988281 47.882812 18.015625 Z M 37.183594 13.332031 C 37.804688 12.929688 38.40625 12.578125 38.988281 12.265625 C 39.996094 14.757812 40.535156 17.007812 40.625 19.113281 C 40.207031 19.207031 39.789062 19.308594 39.378906 19.414062 C 38.550781 17.570312 37.820312 15.550781 37.183594 13.332031 Z M 41.789062 18.867188 C 41.707031 17.351562 41.40625 15.773438 40.890625 14.101562 C 41.972656 15.453125 42.9375 16.925781 43.777344 18.511719 C 43.109375 18.617188 42.445312 18.734375 41.789062 18.867188 Z M 45.003906 18.328125 C 43.71875 15.816406 42.128906 13.5625 40.273438 11.613281 C 40.542969 11.484375 40.808594 11.363281 41.0625 11.253906 C 43.035156 13.484375 44.632812 15.773438 45.925781 18.214844 C 45.617188 18.25 45.308594 18.285156 45.003906 18.328125 Z M 32.09375 17.421875 C 32.453125 18.769531 32.875 20.085938 33.359375 21.367188 C 31.761719 22.007812 30.195312 22.742188 28.6875 23.558594 L 27.777344 22.59375 C 29.179688 20.570312 30.636719 18.855469 32.09375 17.421875 Z M 33.792969 22.457031 C 34.078125 23.148438 34.382812 23.835938 34.707031 24.511719 C 33.433594 24.976562 32.195312 25.484375 31.007812 26.027344 L 29.519531 24.445312 C 30.902344 23.707031 32.335938 23.042969 33.792969 22.457031 Z M 35.234375 25.570312 C 35.859375 26.78125 36.550781 27.96875 37.308594 29.132812 C 36.28125 29.234375 35.257812 29.34375 34.25 29.46875 L 31.859375 26.929688 C 32.941406 26.441406 34.074219 25.988281 35.234375 25.570312 Z M 38.601562 28.96875 C 36.015625 25.101562 34.199219 21.015625 33.0625 16.503906 C 33.457031 16.144531 33.847656 15.804688 34.234375 15.484375 C 35.554688 20.433594 37.371094 24.507812 39.769531 27.894531 C 39.382812 28.253906 38.988281 28.605469 38.601562 28.96875 Z M 40.644531 27.097656 C 38.289062 23.738281 36.515625 19.667969 35.234375 14.691406 C 35.546875 14.453125 35.855469 14.230469 36.164062 14.015625 C 36.832031 16.285156 37.597656 18.359375 38.464844 20.246094 C 38.464844 20.246094 38.464844 20.25 38.464844 20.25 C 38.480469 20.3125 38.507812 20.367188 38.539062 20.417969 C 39.066406 21.542969 39.625 22.605469 40.226562 23.605469 C 40.234375 23.617188 40.238281 23.628906 40.246094 23.640625 C 40.75 24.476562 41.285156 25.261719 41.847656 26.015625 C 41.445312 26.371094 41.042969 26.734375 40.644531 27.097656 Z M 47.222656 21.480469 C 45.09375 21.78125 43.011719 22.171875 41.027344 22.640625 C 40.628906 21.957031 40.246094 21.242188 39.882812 20.496094 C 43.179688 19.683594 46.699219 19.1875 50.382812 19.027344 C 49.324219 19.828125 48.269531 20.644531 47.222656 21.480469 Z M 52.226562 17.675781 C 52.019531 16.011719 51.75 14.371094 51.410156 12.765625 C 51.902344 13.039062 52.378906 13.316406 52.84375 13.597656 C 53.046875 14.667969 53.222656 15.753906 53.367188 16.847656 C 52.984375 17.117188 52.605469 17.402344 52.226562 17.675781 Z M 54.445312 16.101562 C 54.367188 15.546875 54.28125 14.996094 54.1875 14.449219 C 54.640625 14.75 55.085938 15.050781 55.519531 15.359375 C 55.160156 15.605469 54.800781 15.855469 54.445312 16.101562 Z M 7.082031 10.25 C 6.566406 10.667969 6.101562 11.535156 6.804688 13.296875 C 6.898438 13.53125 6.832031 13.800781 6.640625 13.96875 C 6.5 14.09375 6.3125 14.148438 6.121094 14.109375 C 6.015625 14.089844 5.824219 14.023438 5.710938 13.800781 C 4.777344 11.960938 3.625 8.570312 6.40625 6.5625 C 9.160156 4.570312 13.164062 8.78125 13.203125 8.824219 L 32.820312 29.660156 C 32.371094 29.722656 31.925781 29.78125 31.480469 29.847656 C 30.535156 29.988281 29.601562 30.148438 28.675781 30.316406 L 19.667969 20.75 C 19.664062 20.746094 19.664062 20.746094 19.664062 20.746094 L 16.816406 17.722656 C 16.800781 17.699219 16.789062 17.675781 16.769531 17.652344 C 16.757812 17.640625 16.742188 17.640625 16.730469 17.628906 L 15.015625 15.808594 C 15.015625 15.808594 15.015625 15.808594 15.015625 15.804688 L 10.554688 11.070312 C 9.8125 10.324219 8.246094 9.308594 7.082031 10.25 Z M 13.582031 15.996094 C 12.621094 16.386719 11.652344 16.8125 10.671875 17.269531 C 11.296875 16.488281 11.960938 15.738281 12.65625 15.015625 Z M 9.171875 19.304688 C 10.363281 18.699219 11.554688 18.140625 12.730469 17.628906 C 9.734375 20.980469 7.085938 24.578125 4.894531 28.25 C 5.863281 25.054688 7.308594 22.042969 9.171875 19.304688 Z M 1.898438 38.980469 L 1.816406 38.957031 C 1.492188 38.835938 1.324219 38.464844 1.445312 38.128906 C 2.109375 36.292969 2.914062 34.4375 3.84375 32.585938 C 3.84375 32.585938 3.847656 32.582031 3.847656 32.578125 C 6.527344 27.25 10.265625 21.945312 14.714844 17.199219 L 15.550781 18.089844 C 11.363281 22.5625 7.824219 27.546875 5.222656 32.582031 C 5.222656 32.582031 5.222656 32.585938 5.222656 32.585938 C 4.195312 34.578125 3.308594 36.574219 2.59375 38.550781 C 2.484375 38.863281 2.171875 39.042969 1.898438 38.980469 Z M 3.425781 41.605469 C 3.441406 41.589844 4.394531 40.773438 6.304688 39.589844 C 6.320312 39.582031 6.328125 39.570312 6.34375 39.566406 C 7.824219 38.648438 9.871094 37.515625 12.519531 36.351562 C 12.230469 37.566406 11.964844 38.789062 11.746094 40.019531 C 7.1875 42.09375 3.988281 43.953125 3.410156 44.296875 C 3.179688 44.328125 2.683594 44.3125 2.457031 43.714844 C 2.070312 42.675781 3.382812 41.636719 3.425781 41.605469 Z M 2.914062 46.925781 C 2.605469 46.054688 3.875 45.382812 3.890625 45.375 C 3.894531 45.371094 3.898438 45.367188 3.902344 45.363281 C 3.910156 45.359375 3.917969 45.359375 3.921875 45.355469 C 3.957031 45.335938 6.953125 43.535156 11.515625 41.414062 C 11.40625 42.097656 11.308594 42.78125 11.222656 43.464844 C 8.828125 44.695312 6.472656 46.082031 4.21875 47.589844 C 4.128906 47.625 3.769531 47.75 3.460938 47.625 C 3.230469 47.53125 3.042969 47.296875 2.914062 46.925781 Z M 4.53125 50.605469 C 4.335938 50.554688 4.167969 50.402344 4.019531 50.136719 C 3.613281 49.398438 4.804688 48.609375 4.824219 48.597656 C 6.835938 47.25 8.929688 46.007812 11.054688 44.878906 C 10.984375 45.585938 10.921875 46.289062 10.871094 46.992188 C 8.957031 48.050781 7.058594 49.214844 5.234375 50.457031 C 5.234375 50.460938 4.863281 50.683594 4.53125 50.605469 Z M 12.886719 63.140625 C 12.125 62.554688 12.742188 61.5625 12.808594 61.457031 C 17.878906 54.042969 23.054688 47.332031 28.378906 41.265625 C 28.378906 41.261719 28.382812 41.261719 28.382812 41.257812 C 29.472656 40.019531 30.566406 38.808594 31.667969 37.625 C 31.675781 37.617188 31.683594 37.609375 31.6875 37.601562 C 34.167969 34.933594 36.679688 32.398438 39.226562 29.996094 C 39.246094 29.976562 39.269531 29.960938 39.289062 29.9375 C 40.515625 28.78125 41.75 27.664062 42.996094 26.570312 C 42.996094 26.570312 42.996094 26.570312 43 26.570312 C 43 26.566406 43 26.566406 43.003906 26.5625 C 47.390625 22.707031 51.886719 19.222656 56.515625 16.097656 C 57.011719 16.472656 57.492188 16.847656 57.953125 17.226562 C 56.652344 18.128906 55.363281 19.0625 54.082031 20.023438 C 54.058594 20.035156 54.042969 20.050781 54.023438 20.066406 C 52.261719 21.386719 50.515625 22.761719 48.785156 24.191406 C 48.777344 24.199219 48.769531 24.207031 48.757812 24.214844 C 38.683594 32.5625 29.113281 42.824219 19.820312 55.261719 C 19.792969 55.289062 19.765625 55.3125 19.746094 55.347656 C 19.734375 55.363281 19.730469 55.378906 19.722656 55.390625 C 17.894531 57.84375 16.078125 60.371094 14.269531 62.992188 C 14.117188 63.136719 13.519531 63.632812 12.886719 63.140625 Z M 17.183594 60.882812 C 17.632812 62.542969 18.164062 64.132812 18.789062 65.625 C 17.652344 64.90625 16.558594 64.113281 15.515625 63.257812 C 16.070312 62.457031 16.628906 61.667969 17.183594 60.882812 Z M 23.4375 69.933594 C 22.429688 69.691406 21.171875 67.890625 20.617188 66.828125 C 19.558594 64.660156 18.707031 62.238281 18.066406 59.640625 C 18.6875 58.777344 19.308594 57.929688 19.933594 57.085938 C 21.394531 63.757812 23.824219 68.324219 24.433594 69.402344 C 24.3125 69.683594 24.03125 70.074219 23.4375 69.933594 Z M 25.46875 68.847656 C 25.019531 68.050781 23.125 64.503906 21.6875 59.285156 C 26.675781 60.761719 31.546875 61.515625 36.238281 61.515625 C 38.257812 61.515625 40.246094 61.367188 42.199219 61.09375 C 41.65625 62.074219 41.089844 63.035156 40.503906 63.980469 C 36.933594 64.761719 33.074219 65.15625 29.015625 65.15625 C 28.902344 65.15625 28.777344 65.164062 28.679688 65.15625 C 28.355469 65.15625 28.09375 65.417969 28.09375 65.742188 C 28.089844 66.066406 28.351562 66.328125 28.675781 66.332031 C 28.789062 66.332031 28.902344 66.332031 29.015625 66.332031 C 32.734375 66.332031 36.296875 66.003906 39.628906 65.359375 C 38.488281 67.117188 37.285156 68.824219 36 70.457031 C 35.941406 70.53125 35.890625 70.613281 35.84375 70.695312 C 33.4375 70.65625 31.023438 70.359375 28.660156 69.789062 C 27.582031 69.53125 26.511719 69.210938 25.46875 68.847656 Z M 37.855469 71.996094 C 37.707031 72.191406 37.460938 72.277344 37.234375 72.226562 C 37.148438 72.203125 37.074219 72.164062 37 72.109375 C 36.875 72.003906 36.792969 71.847656 36.777344 71.675781 C 36.761719 71.496094 36.8125 71.324219 36.921875 71.183594 C 38.507812 69.164062 39.980469 67.046875 41.347656 64.84375 C 41.363281 64.824219 41.375 64.804688 41.382812 64.785156 C 42.210938 63.453125 42.996094 62.085938 43.738281 60.691406 C 43.757812 60.667969 43.765625 60.640625 43.78125 60.613281 C 44.984375 58.355469 46.085938 56.019531 47.066406 53.605469 C 47.078125 53.585938 47.082031 53.5625 47.089844 53.542969 C 47.277344 53.085938 47.453125 52.628906 47.632812 52.167969 L 48.5625 53.15625 C 45.847656 60.066406 42.25 66.40625 37.855469 71.996094 Z M 43.183594 69.988281 C 48.160156 67.382812 51.914062 64.070312 54.792969 59.773438 L 55.589844 60.621094 C 54.605469 61.867188 53.511719 63.046875 52.328125 64.128906 C 52.085938 64.34375 52.070312 64.71875 52.289062 64.957031 C 52.402344 65.082031 52.5625 65.148438 52.722656 65.148438 C 52.863281 65.148438 53.003906 65.097656 53.117188 64.996094 C 54.308594 63.910156 55.40625 62.730469 56.402344 61.484375 L 57.679688 62.839844 C 53.519531 66.378906 48.496094 68.847656 43.183594 69.988281 Z M 71.476562 73.253906 C 70.78125 73.910156 69.683594 73.878906 69.027344 73.183594 L 66.003906 69.972656 C 67.171875 69.359375 68.023438 68.578125 68.570312 67.636719 L 71.550781 70.804688 C 71.867188 71.144531 72.035156 71.582031 72.023438 72.046875 C 72.007812 72.507812 71.816406 72.9375 71.476562 73.253906 Z M 71.476562 73.253906 " fill-opacity="1" fill-rule="nonzero"/></g></svg>